<?xml version="1.0" encoding="utf-8" standalone="no"?>
<!DOCTYPE svg PUBLIC "-//W3C//DTD SVG 1.1//EN"
  "http://www.w3.org/Graphics/SVG/1.1/DTD/svg11.dtd">
<svg xmlns:xlink="http://www.w3.org/1999/xlink" width="576pt" height="576pt" viewBox="0 0 576 576" xmlns="http://www.w3.org/2000/svg" version="1.1">
 <metadata>
  <rdf:RDF xmlns:dc="http://purl.org/dc/elements/1.1/" xmlns:cc="http://creativecommons.org/ns#" xmlns:rdf="http://www.w3.org/1999/02/22-rdf-syntax-ns#">
   <cc:Work>
    <dc:type rdf:resource="http://purl.org/dc/dcmitype/StillImage"/>
    <dc:date>2023-04-25T04:24:47.399940</dc:date>
    <dc:format>image/svg+xml</dc:format>
    <dc:creator>
     <cc:Agent>
      <dc:title>Matplotlib v3.6.3, https://matplotlib.org/</dc:title>
     </cc:Agent>
    </dc:creator>
   </cc:Work>
  </rdf:RDF>
 </metadata>
 <defs>
  <style type="text/css">*{stroke-linejoin: round; stroke-linecap: butt}</style>
 </defs>
 <g id="figure_1">
  <g id="patch_1">
   <path d="M 0 576 
L 576 576 
L 576 0 
L 0 0 
L 0 576 
z
" style="fill: none"/>
  </g>
  <g id="axes_1">
   <g id="patch_2">
    <path d="M 72 504 
L 518.4 504 
L 518.4 69.12 
L 72 69.12 
z
" style="fill: #eaeaf2"/>
   </g>
   <g id="matplotlib.axis_1">
    <g id="xtick_1">
     <g id="line2d_1">
      <path d="M 92.290909 504 
L 92.290909 69.12 
" clip-path="url(#pce4349129a)" style="fill: none; stroke: #ffffff; stroke-width: 0.8; stroke-linecap: round"/>
     </g>
     <g id="line2d_2"/>
     <g id="text_1">
      <!-- 0 -->
      <g style="fill: #262626" transform="translate(87.286065 520.384063) scale(0.18 -0.18)">
       <defs>
        <path id="ArialMT-30" d="M 266 2259 
Q 266 3072 433 3567 
Q 600 4063 929 4331 
Q 1259 4600 1759 4600 
Q 2128 4600 2406 4451 
Q 2684 4303 2865 4023 
Q 3047 3744 3150 3342 
Q 3253 2941 3253 2259 
Q 3253 1453 3087 958 
Q 2922 463 2592 192 
Q 2263 -78 1759 -78 
Q 1097 -78 719 397 
Q 266 969 266 2259 
z
M 844 2259 
Q 844 1131 1108 757 
Q 1372 384 1759 384 
Q 2147 384 2411 759 
Q 2675 1134 2675 2259 
Q 2675 3391 2411 3762 
Q 2147 4134 1753 4134 
Q 1366 4134 1134 3806 
Q 844 3388 844 2259 
z
" transform="scale(0.015625)"/>
       </defs>
       <use xlink:href="#ArialMT-30"/>
      </g>
     </g>
    </g>
    <g id="xtick_2">
     <g id="line2d_3">
      <path d="M 196.614349 504 
L 196.614349 69.12 
" clip-path="url(#pce4349129a)" style="fill: none; stroke: #ffffff; stroke-width: 0.8; stroke-linecap: round"/>
     </g>
     <g id="line2d_4"/>
     <g id="text_2">
      <!-- 100 -->
      <g style="fill: #262626" transform="translate(181.599818 520.384063) scale(0.18 -0.18)">
       <defs>
        <path id="ArialMT-31" d="M 2384 0 
L 1822 0 
L 1822 3584 
Q 1619 3391 1289 3197 
Q 959 3003 697 2906 
L 697 3450 
Q 1169 3672 1522 3987 
Q 1875 4303 2022 4600 
L 2384 4600 
L 2384 0 
z
" transform="scale(0.015625)"/>
       </defs>
       <use xlink:href="#ArialMT-31"/>
       <use xlink:href="#ArialMT-30" x="55.615234"/>
       <use xlink:href="#ArialMT-30" x="111.230469"/>
      </g>
     </g>
    </g>
    <g id="xtick_3">
     <g id="line2d_5">
      <path d="M 300.937789 504 
L 300.937789 69.12 
" clip-path="url(#pce4349129a)" style="fill: none; stroke: #ffffff; stroke-width: 0.8; stroke-linecap: round"/>
     </g>
     <g id="line2d_6"/>
     <g id="text_3">
      <!-- 200 -->
      <g style="fill: #262626" transform="translate(285.923258 520.384063) scale(0.18 -0.18)">
       <defs>
        <path id="ArialMT-32" d="M 3222 541 
L 3222 0 
L 194 0 
Q 188 203 259 391 
Q 375 700 629 1000 
Q 884 1300 1366 1694 
Q 2113 2306 2375 2664 
Q 2638 3022 2638 3341 
Q 2638 3675 2398 3904 
Q 2159 4134 1775 4134 
Q 1369 4134 1125 3890 
Q 881 3647 878 3216 
L 300 3275 
Q 359 3922 746 4261 
Q 1134 4600 1788 4600 
Q 2447 4600 2831 4234 
Q 3216 3869 3216 3328 
Q 3216 3053 3103 2787 
Q 2991 2522 2730 2228 
Q 2469 1934 1863 1422 
Q 1356 997 1212 845 
Q 1069 694 975 541 
L 3222 541 
z
" transform="scale(0.015625)"/>
       </defs>
       <use xlink:href="#ArialMT-32"/>
       <use xlink:href="#ArialMT-30" x="55.615234"/>
       <use xlink:href="#ArialMT-30" x="111.230469"/>
      </g>
     </g>
    </g>
    <g id="xtick_4">
     <g id="line2d_7">
      <path d="M 405.261229 504 
L 405.261229 69.12 
" clip-path="url(#pce4349129a)" style="fill: none; stroke: #ffffff; stroke-width: 0.8; stroke-linecap: round"/>
     </g>
     <g id="line2d_8"/>
     <g id="text_4">
      <!-- 300 -->
      <g style="fill: #262626" transform="translate(390.246698 520.384063) scale(0.18 -0.18)">
       <defs>
        <path id="ArialMT-33" d="M 269 1209 
L 831 1284 
Q 928 806 1161 595 
Q 1394 384 1728 384 
Q 2125 384 2398 659 
Q 2672 934 2672 1341 
Q 2672 1728 2419 1979 
Q 2166 2231 1775 2231 
Q 1616 2231 1378 2169 
L 1441 2663 
Q 1497 2656 1531 2656 
Q 1891 2656 2178 2843 
Q 2466 3031 2466 3422 
Q 2466 3731 2256 3934 
Q 2047 4138 1716 4138 
Q 1388 4138 1169 3931 
Q 950 3725 888 3313 
L 325 3413 
Q 428 3978 793 4289 
Q 1159 4600 1703 4600 
Q 2078 4600 2393 4439 
Q 2709 4278 2876 4000 
Q 3044 3722 3044 3409 
Q 3044 3113 2884 2869 
Q 2725 2625 2413 2481 
Q 2819 2388 3044 2092 
Q 3269 1797 3269 1353 
Q 3269 753 2831 336 
Q 2394 -81 1725 -81 
Q 1122 -81 723 278 
Q 325 638 269 1209 
z
" transform="scale(0.015625)"/>
       </defs>
       <use xlink:href="#ArialMT-33"/>
       <use xlink:href="#ArialMT-30" x="55.615234"/>
       <use xlink:href="#ArialMT-30" x="111.230469"/>
      </g>
     </g>
    </g>
    <g id="xtick_5">
     <g id="line2d_9">
      <path d="M 509.584669 504 
L 509.584669 69.12 
" clip-path="url(#pce4349129a)" style="fill: none; stroke: #ffffff; stroke-width: 0.8; stroke-linecap: round"/>
     </g>
     <g id="line2d_10"/>
     <g id="text_5">
      <!-- 400 -->
      <g style="fill: #262626" transform="translate(494.570138 520.384063) scale(0.18 -0.18)">
       <defs>
        <path id="ArialMT-34" d="M 2069 0 
L 2069 1097 
L 81 1097 
L 81 1613 
L 2172 4581 
L 2631 4581 
L 2631 1613 
L 3250 1613 
L 3250 1097 
L 2631 1097 
L 2631 0 
L 2069 0 
z
M 2069 1613 
L 2069 3678 
L 634 1613 
L 2069 1613 
z
" transform="scale(0.015625)"/>
       </defs>
       <use xlink:href="#ArialMT-34"/>
       <use xlink:href="#ArialMT-30" x="55.615234"/>
       <use xlink:href="#ArialMT-30" x="111.230469"/>
      </g>
     </g>
    </g>
    <g id="text_6">
     <!-- Training Iterations -->
     <g style="fill: #262626" transform="translate(223.507969 540.845625) scale(0.18 -0.18)">
      <defs>
       <path id="ArialMT-54" d="M 1659 0 
L 1659 4041 
L 150 4041 
L 150 4581 
L 3781 4581 
L 3781 4041 
L 2266 4041 
L 2266 0 
L 1659 0 
z
" transform="scale(0.015625)"/>
       <path id="ArialMT-72" d="M 416 0 
L 416 3319 
L 922 3319 
L 922 2816 
Q 1116 3169 1280 3281 
Q 1444 3394 1641 3394 
Q 1925 3394 2219 3213 
L 2025 2691 
Q 1819 2813 1613 2813 
Q 1428 2813 1281 2702 
Q 1134 2591 1072 2394 
Q 978 2094 978 1738 
L 978 0 
L 416 0 
z
" transform="scale(0.015625)"/>
       <path id="ArialMT-61" d="M 2588 409 
Q 2275 144 1986 34 
Q 1697 -75 1366 -75 
Q 819 -75 525 192 
Q 231 459 231 875 
Q 231 1119 342 1320 
Q 453 1522 633 1644 
Q 813 1766 1038 1828 
Q 1203 1872 1538 1913 
Q 2219 1994 2541 2106 
Q 2544 2222 2544 2253 
Q 2544 2597 2384 2738 
Q 2169 2928 1744 2928 
Q 1347 2928 1158 2789 
Q 969 2650 878 2297 
L 328 2372 
Q 403 2725 575 2942 
Q 747 3159 1072 3276 
Q 1397 3394 1825 3394 
Q 2250 3394 2515 3294 
Q 2781 3194 2906 3042 
Q 3031 2891 3081 2659 
Q 3109 2516 3109 2141 
L 3109 1391 
Q 3109 606 3145 398 
Q 3181 191 3288 0 
L 2700 0 
Q 2613 175 2588 409 
z
M 2541 1666 
Q 2234 1541 1622 1453 
Q 1275 1403 1131 1340 
Q 988 1278 909 1158 
Q 831 1038 831 891 
Q 831 666 1001 516 
Q 1172 366 1500 366 
Q 1825 366 2078 508 
Q 2331 650 2450 897 
Q 2541 1088 2541 1459 
L 2541 1666 
z
" transform="scale(0.015625)"/>
       <path id="ArialMT-69" d="M 425 3934 
L 425 4581 
L 988 4581 
L 988 3934 
L 425 3934 
z
M 425 0 
L 425 3319 
L 988 3319 
L 988 0 
L 425 0 
z
" transform="scale(0.015625)"/>
       <path id="ArialMT-6e" d="M 422 0 
L 422 3319 
L 928 3319 
L 928 2847 
Q 1294 3394 1984 3394 
Q 2284 3394 2536 3286 
Q 2788 3178 2913 3003 
Q 3038 2828 3088 2588 
Q 3119 2431 3119 2041 
L 3119 0 
L 2556 0 
L 2556 2019 
Q 2556 2363 2490 2533 
Q 2425 2703 2258 2804 
Q 2091 2906 1866 2906 
Q 1506 2906 1245 2678 
Q 984 2450 984 1813 
L 984 0 
L 422 0 
z
" transform="scale(0.015625)"/>
       <path id="ArialMT-67" d="M 319 -275 
L 866 -356 
Q 900 -609 1056 -725 
Q 1266 -881 1628 -881 
Q 2019 -881 2231 -725 
Q 2444 -569 2519 -288 
Q 2563 -116 2559 434 
Q 2191 0 1641 0 
Q 956 0 581 494 
Q 206 988 206 1678 
Q 206 2153 378 2554 
Q 550 2956 876 3175 
Q 1203 3394 1644 3394 
Q 2231 3394 2613 2919 
L 2613 3319 
L 3131 3319 
L 3131 450 
Q 3131 -325 2973 -648 
Q 2816 -972 2473 -1159 
Q 2131 -1347 1631 -1347 
Q 1038 -1347 672 -1080 
Q 306 -813 319 -275 
z
M 784 1719 
Q 784 1066 1043 766 
Q 1303 466 1694 466 
Q 2081 466 2343 764 
Q 2606 1063 2606 1700 
Q 2606 2309 2336 2618 
Q 2066 2928 1684 2928 
Q 1309 2928 1046 2623 
Q 784 2319 784 1719 
z
" transform="scale(0.015625)"/>
       <path id="ArialMT-20" transform="scale(0.015625)"/>
       <path id="ArialMT-49" d="M 597 0 
L 597 4581 
L 1203 4581 
L 1203 0 
L 597 0 
z
" transform="scale(0.015625)"/>
       <path id="ArialMT-74" d="M 1650 503 
L 1731 6 
Q 1494 -44 1306 -44 
Q 1000 -44 831 53 
Q 663 150 594 308 
Q 525 466 525 972 
L 525 2881 
L 113 2881 
L 113 3319 
L 525 3319 
L 525 4141 
L 1084 4478 
L 1084 3319 
L 1650 3319 
L 1650 2881 
L 1084 2881 
L 1084 941 
Q 1084 700 1114 631 
Q 1144 563 1211 522 
Q 1278 481 1403 481 
Q 1497 481 1650 503 
z
" transform="scale(0.015625)"/>
       <path id="ArialMT-65" d="M 2694 1069 
L 3275 997 
Q 3138 488 2766 206 
Q 2394 -75 1816 -75 
Q 1088 -75 661 373 
Q 234 822 234 1631 
Q 234 2469 665 2931 
Q 1097 3394 1784 3394 
Q 2450 3394 2872 2941 
Q 3294 2488 3294 1666 
Q 3294 1616 3291 1516 
L 816 1516 
Q 847 969 1125 678 
Q 1403 388 1819 388 
Q 2128 388 2347 550 
Q 2566 713 2694 1069 
z
M 847 1978 
L 2700 1978 
Q 2663 2397 2488 2606 
Q 2219 2931 1791 2931 
Q 1403 2931 1139 2672 
Q 875 2413 847 1978 
z
" transform="scale(0.015625)"/>
       <path id="ArialMT-6f" d="M 213 1659 
Q 213 2581 725 3025 
Q 1153 3394 1769 3394 
Q 2453 3394 2887 2945 
Q 3322 2497 3322 1706 
Q 3322 1066 3130 698 
Q 2938 331 2570 128 
Q 2203 -75 1769 -75 
Q 1072 -75 642 372 
Q 213 819 213 1659 
z
M 791 1659 
Q 791 1022 1069 705 
Q 1347 388 1769 388 
Q 2188 388 2466 706 
Q 2744 1025 2744 1678 
Q 2744 2294 2464 2611 
Q 2184 2928 1769 2928 
Q 1347 2928 1069 2612 
Q 791 2297 791 1659 
z
" transform="scale(0.015625)"/>
       <path id="ArialMT-73" d="M 197 991 
L 753 1078 
Q 800 744 1014 566 
Q 1228 388 1613 388 
Q 2000 388 2187 545 
Q 2375 703 2375 916 
Q 2375 1106 2209 1216 
Q 2094 1291 1634 1406 
Q 1016 1563 777 1677 
Q 538 1791 414 1992 
Q 291 2194 291 2438 
Q 291 2659 392 2848 
Q 494 3038 669 3163 
Q 800 3259 1026 3326 
Q 1253 3394 1513 3394 
Q 1903 3394 2198 3281 
Q 2494 3169 2634 2976 
Q 2775 2784 2828 2463 
L 2278 2388 
Q 2241 2644 2061 2787 
Q 1881 2931 1553 2931 
Q 1166 2931 1000 2803 
Q 834 2675 834 2503 
Q 834 2394 903 2306 
Q 972 2216 1119 2156 
Q 1203 2125 1616 2013 
Q 2213 1853 2448 1751 
Q 2684 1650 2818 1456 
Q 2953 1263 2953 975 
Q 2953 694 2789 445 
Q 2625 197 2315 61 
Q 2006 -75 1616 -75 
Q 969 -75 630 194 
Q 291 463 197 991 
z
" transform="scale(0.015625)"/>
      </defs>
      <use xlink:href="#ArialMT-54"/>
      <use xlink:href="#ArialMT-72" x="57.333984"/>
      <use xlink:href="#ArialMT-61" x="90.634766"/>
      <use xlink:href="#ArialMT-69" x="146.25"/>
      <use xlink:href="#ArialMT-6e" x="168.466797"/>
      <use xlink:href="#ArialMT-69" x="224.082031"/>
      <use xlink:href="#ArialMT-6e" x="246.298828"/>
      <use xlink:href="#ArialMT-67" x="301.914062"/>
      <use xlink:href="#ArialMT-20" x="357.529297"/>
      <use xlink:href="#ArialMT-49" x="385.3125"/>
      <use xlink:href="#ArialMT-74" x="413.095703"/>
      <use xlink:href="#ArialMT-65" x="440.878906"/>
      <use xlink:href="#ArialMT-72" x="496.494141"/>
      <use xlink:href="#ArialMT-61" x="529.794922"/>
      <use xlink:href="#ArialMT-74" x="585.410156"/>
      <use xlink:href="#ArialMT-69" x="613.193359"/>
      <use xlink:href="#ArialMT-6f" x="635.410156"/>
      <use xlink:href="#ArialMT-6e" x="691.025391"/>
      <use xlink:href="#ArialMT-73" x="746.640625"/>
     </g>
    </g>
   </g>
   <g id="matplotlib.axis_2">
    <g id="ytick_1">
     <g id="line2d_11">
      <path d="M 72 503.75402 
L 518.4 503.75402 
" clip-path="url(#pce4349129a)" style="fill: none; stroke: #ffffff; stroke-width: 0.8; stroke-linecap: round"/>
     </g>
     <g id="line2d_12"/>
     <g id="text_7">
      <!-- 0.0 -->
      <g style="fill: #262626" transform="translate(43.48 510.196052) scale(0.18 -0.18)">
       <defs>
        <path id="ArialMT-2e" d="M 581 0 
L 581 641 
L 1222 641 
L 1222 0 
L 581 0 
z
" transform="scale(0.015625)"/>
       </defs>
       <use xlink:href="#ArialMT-30"/>
       <use xlink:href="#ArialMT-2e" x="55.615234"/>
       <use xlink:href="#ArialMT-30" x="83.398438"/>
      </g>
     </g>
    </g>
    <g id="ytick_2">
     <g id="line2d_13">
      <path d="M 72 430.512395 
L 518.4 430.512395 
" clip-path="url(#pce4349129a)" style="fill: none; stroke: #ffffff; stroke-width: 0.8; stroke-linecap: round"/>
     </g>
     <g id="line2d_14"/>
     <g id="text_8">
      <!-- 0.5 -->
      <g style="fill: #262626" transform="translate(43.48 436.954426) scale(0.18 -0.18)">
       <defs>
        <path id="ArialMT-35" d="M 266 1200 
L 856 1250 
Q 922 819 1161 601 
Q 1400 384 1738 384 
Q 2144 384 2425 690 
Q 2706 997 2706 1503 
Q 2706 1984 2436 2262 
Q 2166 2541 1728 2541 
Q 1456 2541 1237 2417 
Q 1019 2294 894 2097 
L 366 2166 
L 809 4519 
L 3088 4519 
L 3088 3981 
L 1259 3981 
L 1013 2750 
Q 1425 3038 1878 3038 
Q 2478 3038 2890 2622 
Q 3303 2206 3303 1553 
Q 3303 931 2941 478 
Q 2500 -78 1738 -78 
Q 1113 -78 717 272 
Q 322 622 266 1200 
z
" transform="scale(0.015625)"/>
       </defs>
       <use xlink:href="#ArialMT-30"/>
       <use xlink:href="#ArialMT-2e" x="55.615234"/>
       <use xlink:href="#ArialMT-35" x="83.398438"/>
      </g>
     </g>
    </g>
    <g id="ytick_3">
     <g id="line2d_15">
      <path d="M 72 357.270769 
L 518.4 357.270769 
" clip-path="url(#pce4349129a)" style="fill: none; stroke: #ffffff; stroke-width: 0.8; stroke-linecap: round"/>
     </g>
     <g id="line2d_16"/>
     <g id="text_9">
      <!-- 1.0 -->
      <g style="fill: #262626" transform="translate(43.48 363.712801) scale(0.18 -0.18)">
       <use xlink:href="#ArialMT-31"/>
       <use xlink:href="#ArialMT-2e" x="55.615234"/>
       <use xlink:href="#ArialMT-30" x="83.398438"/>
      </g>
     </g>
    </g>
    <g id="ytick_4">
     <g id="line2d_17">
      <path d="M 72 284.029144 
L 518.4 284.029144 
" clip-path="url(#pce4349129a)" style="fill: none; stroke: #ffffff; stroke-width: 0.8; stroke-linecap: round"/>
     </g>
     <g id="line2d_18"/>
     <g id="text_10">
      <!-- 1.5 -->
      <g style="fill: #262626" transform="translate(43.48 290.471175) scale(0.18 -0.18)">
       <use xlink:href="#ArialMT-31"/>
       <use xlink:href="#ArialMT-2e" x="55.615234"/>
       <use xlink:href="#ArialMT-35" x="83.398438"/>
      </g>
     </g>
    </g>
    <g id="ytick_5">
     <g id="line2d_19">
      <path d="M 72 210.787518 
L 518.4 210.787518 
" clip-path="url(#pce4349129a)" style="fill: none; stroke: #ffffff; stroke-width: 0.8; stroke-linecap: round"/>
     </g>
     <g id="line2d_20"/>
     <g id="text_11">
      <!-- 2.0 -->
      <g style="fill: #262626" transform="translate(43.48 217.229549) scale(0.18 -0.18)">
       <use xlink:href="#ArialMT-32"/>
       <use xlink:href="#ArialMT-2e" x="55.615234"/>
       <use xlink:href="#ArialMT-30" x="83.398438"/>
      </g>
     </g>
    </g>
    <g id="ytick_6">
     <g id="line2d_21">
      <path d="M 72 137.545893 
L 518.4 137.545893 
" clip-path="url(#pce4349129a)" style="fill: none; stroke: #ffffff; stroke-width: 0.8; stroke-linecap: round"/>
     </g>
     <g id="line2d_22"/>
     <g id="text_12">
      <!-- 2.5 -->
      <g style="fill: #262626" transform="translate(43.48 143.987924) scale(0.18 -0.18)">
       <use xlink:href="#ArialMT-32"/>
       <use xlink:href="#ArialMT-2e" x="55.615234"/>
       <use xlink:href="#ArialMT-35" x="83.398438"/>
      </g>
     </g>
    </g>
    <g id="text_13">
     <!-- Loss -->
     <g style="fill: #262626" transform="translate(35.9025 305.569687) rotate(-90) scale(0.18 -0.18)">
      <defs>
       <path id="ArialMT-4c" d="M 469 0 
L 469 4581 
L 1075 4581 
L 1075 541 
L 3331 541 
L 3331 0 
L 469 0 
z
" transform="scale(0.015625)"/>
      </defs>
      <use xlink:href="#ArialMT-4c"/>
      <use xlink:href="#ArialMT-6f" x="55.615234"/>
      <use xlink:href="#ArialMT-73" x="111.230469"/>
      <use xlink:href="#ArialMT-73" x="161.230469"/>
     </g>
    </g>
   </g>
   <g id="line2d_23">
    <path d="M 92.290909 88.887273 
L 94.377378 164.805548 
L 95.420612 189.206795 
L 96.463847 224.277158 
L 97.507081 249.84602 
L 98.550315 270.166782 
L 99.59355 284.846093 
L 101.680019 329.868385 
L 102.723253 334.61823 
L 103.766487 343.153928 
L 104.809722 348.723694 
L 105.852956 364.415382 
L 106.896191 369.53386 
L 107.939425 372.179229 
L 108.982659 373.381939 
L 110.025894 384.639082 
L 111.069128 379.218552 
L 112.112363 395.349646 
L 113.155597 402.423041 
L 114.198832 392.764645 
L 115.242066 411.448729 
L 116.2853 415.65216 
L 117.328535 399.775348 
L 118.371769 413.450444 
L 119.415004 408.144431 
L 120.458238 411.517385 
L 121.501472 412.743065 
L 122.544707 411.132669 
L 123.587941 420.356568 
L 124.631176 410.982514 
L 125.67441 424.005569 
L 126.717644 414.369756 
L 127.760879 431.07083 
L 128.804113 428.380993 
L 129.847348 426.014684 
L 131.933816 415.763483 
L 132.977051 425.646336 
L 134.020285 426.471164 
L 135.06352 424.827795 
L 136.106754 432.743259 
L 137.149988 425.910756 
L 138.193223 439.07138 
L 139.236457 432.614427 
L 140.279692 430.56455 
L 141.322926 434.378817 
L 142.36616 430.86737 
L 143.409395 430.526902 
L 144.452629 427.183403 
L 145.495864 429.701265 
L 146.539098 432.627483 
L 147.582332 436.293085 
L 148.625567 438.563195 
L 149.668801 431.059036 
L 150.712036 435.775722 
L 151.75527 438.103857 
L 152.798504 441.388375 
L 153.841739 440.712829 
L 154.884973 447.495646 
L 155.928208 439.502017 
L 156.971442 437.981523 
L 158.014676 448.938627 
L 159.057911 453.092754 
L 160.101145 444.041744 
L 161.14438 442.510247 
L 162.187614 441.686577 
L 163.230848 441.213615 
L 164.274083 439.820759 
L 165.317317 453.262669 
L 166.360552 437.783579 
L 167.403786 443.533051 
L 169.490255 461.483998 
L 170.533489 446.627363 
L 171.576724 447.659458 
L 172.619958 441.282138 
L 173.663192 446.787977 
L 174.706427 456.285672 
L 175.749661 452.584877 
L 176.792896 448.266384 
L 177.83613 467.256564 
L 178.879364 450.612362 
L 179.922599 451.771549 
L 180.965833 458.467781 
L 182.009068 447.512948 
L 183.052302 451.149203 
L 184.095536 451.204894 
L 185.138771 446.934719 
L 186.182005 449.688314 
L 187.22524 441.211346 
L 188.268474 449.310719 
L 189.311708 451.312671 
L 190.354943 459.818336 
L 191.398177 442.562876 
L 192.441412 453.888011 
L 193.484646 449.487567 
L 194.52788 450.950572 
L 195.571115 451.324366 
L 196.614349 460.019211 
L 197.657584 457.469487 
L 198.700818 451.083047 
L 199.744052 455.912084 
L 200.787287 448.705609 
L 201.830521 448.771179 
L 202.873756 455.561141 
L 203.91699 455.507047 
L 204.960224 456.204236 
L 206.003459 455.582486 
L 207.046693 451.274193 
L 208.089928 466.913035 
L 209.133162 453.547602 
L 210.176396 458.164805 
L 211.219631 455.129875 
L 213.3061 460.845267 
L 214.349334 457.358851 
L 215.392568 460.503227 
L 216.435803 450.3129 
L 217.479037 457.842056 
L 218.522272 456.354965 
L 219.565506 456.550684 
L 220.60874 469.082215 
L 221.651975 460.934099 
L 222.695209 454.568214 
L 223.738444 457.838682 
L 224.781678 467.868649 
L 225.824912 471.430546 
L 226.868147 459.878492 
L 227.911381 463.66402 
L 228.954616 457.597599 
L 229.99785 453.449469 
L 231.041084 468.798321 
L 232.084319 456.941881 
L 233.127553 467.267958 
L 234.170788 451.696796 
L 235.214022 464.164926 
L 236.257256 467.1326 
L 237.300491 467.460333 
L 238.343725 463.716616 
L 239.38696 461.901455 
L 240.430194 457.656627 
L 241.473428 465.200704 
L 242.516663 462.819846 
L 243.559897 461.945341 
L 244.603132 460.629159 
L 245.646366 462.724703 
L 246.6896 455.922424 
L 247.732835 458.331906 
L 248.776069 469.032797 
L 249.819304 460.21786 
L 250.862538 461.919965 
L 251.905772 462.77172 
L 252.949007 456.076145 
L 253.992241 466.397331 
L 255.035476 465.078193 
L 256.07871 457.030373 
L 257.121944 464.253693 
L 258.165179 456.512779 
L 259.208413 460.783795 
L 260.251648 473.043766 
L 261.294882 461.043597 
L 262.338116 462.789156 
L 263.381351 463.572795 
L 264.424585 462.024865 
L 265.46782 469.288641 
L 266.511054 455.89706 
L 267.554288 465.502323 
L 268.597523 466.322513 
L 269.640757 468.478633 
L 270.683992 462.125238 
L 271.727226 469.628809 
L 272.77046 471.568303 
L 273.813695 464.185736 
L 274.856929 469.899179 
L 275.900164 463.846867 
L 276.943398 468.43965 
L 277.986632 470.54527 
L 279.029867 473.451882 
L 280.073101 462.920749 
L 281.116336 467.178674 
L 282.15957 464.338698 
L 283.202804 458.66647 
L 284.246039 466.97634 
L 285.289273 471.204339 
L 286.332508 468.936236 
L 287.375742 464.265334 
L 288.418976 464.361675 
L 289.462211 464.833763 
L 290.505445 469.469789 
L 291.54868 468.296699 
L 292.591914 472.88284 
L 293.635148 468.296513 
L 294.678383 469.897792 
L 295.721617 474.850217 
L 296.764852 472.709386 
L 297.808086 471.737715 
L 298.85132 468.081675 
L 299.894555 471.448189 
L 300.937789 467.319251 
L 301.981024 460.717815 
L 303.024258 468.492645 
L 304.067492 464.747663 
L 305.110727 463.244824 
L 306.153961 472.42823 
L 307.197196 461.377159 
L 308.24043 472.783022 
L 310.326899 473.165274 
L 311.370133 466.856986 
L 312.413368 476.846058 
L 313.456602 469.765116 
L 314.499836 470.39425 
L 315.543071 476.039917 
L 316.586305 472.989651 
L 317.62954 471.851078 
L 318.672774 469.395875 
L 319.716008 478.80171 
L 320.759243 476.898661 
L 322.845712 465.065809 
L 323.888946 467.325003 
L 324.93218 473.459545 
L 325.975415 464.599712 
L 327.018649 470.725049 
L 328.061884 473.900871 
L 329.105118 458.000686 
L 330.148352 474.999512 
L 331.191587 465.251471 
L 332.234821 472.156401 
L 333.278056 470.347504 
L 334.32129 470.259243 
L 335.364524 471.046677 
L 336.407759 467.595214 
L 337.450993 470.744582 
L 338.494228 467.953437 
L 339.537462 466.297269 
L 340.580696 461.999029 
L 341.623931 470.307868 
L 342.667165 474.574648 
L 343.7104 473.925884 
L 344.753634 470.823769 
L 345.796868 474.154676 
L 346.840103 472.939309 
L 347.883337 474.787296 
L 348.926572 471.669656 
L 349.969806 473.283732 
L 351.01304 468.869333 
L 352.056275 472.671862 
L 353.099509 472.58962 
L 354.142744 468.01756 
L 355.185978 474.084159 
L 356.229212 470.032206 
L 357.272447 464.102711 
L 359.358916 473.174232 
L 360.40215 469.361507 
L 361.445384 472.278034 
L 362.488619 466.756574 
L 363.531853 478.058816 
L 364.575088 472.685617 
L 365.618322 474.197603 
L 366.661556 470.905209 
L 367.704791 473.475624 
L 368.748025 468.651586 
L 369.79126 468.212168 
L 370.834494 471.529754 
L 371.877728 472.660575 
L 372.920963 476.942452 
L 373.964197 474.358534 
L 375.007432 469.890002 
L 376.050666 476.140707 
L 377.0939 475.888994 
L 378.137135 472.040245 
L 379.180369 478.080319 
L 380.223604 476.536331 
L 381.266838 473.397534 
L 382.310072 474.549123 
L 383.353307 470.76138 
L 385.439776 473.451571 
L 386.48301 468.811547 
L 387.526244 471.69815 
L 388.569479 475.4318 
L 389.612713 478.122684 
L 390.655948 473.870339 
L 391.699182 476.800704 
L 392.742416 473.330679 
L 393.785651 473.5866 
L 394.828885 475.229061 
L 395.87212 474.151245 
L 396.915354 472.398151 
L 397.958588 469.500299 
L 399.001823 473.337366 
L 400.045057 476.386701 
L 401.088292 468.843145 
L 402.131526 471.565638 
L 403.17476 471.287821 
L 404.217995 476.54561 
L 405.261229 470.994708 
L 406.304464 473.418412 
L 407.347698 471.573113 
L 408.390932 474.517563 
L 409.434167 473.482527 
L 410.477401 479.83357 
L 411.520636 473.646802 
L 412.56387 475.720653 
L 413.607104 475.402372 
L 414.650339 474.698767 
L 415.693573 466.98721 
L 416.736808 474.237537 
L 417.780042 475.611216 
L 418.823276 475.544921 
L 419.866511 479.963322 
L 420.909745 479.746733 
L 421.95298 475.248544 
L 422.996214 472.956119 
L 424.039448 476.92493 
L 425.082683 474.037277 
L 426.125917 476.011656 
L 427.169152 473.084382 
L 428.212386 479.45713 
L 429.25562 478.055555 
L 430.298855 474.436579 
L 431.342089 475.352652 
L 432.385324 472.542306 
L 433.428558 474.700701 
L 434.471792 472.301092 
L 435.515027 477.846326 
L 436.558261 478.128882 
L 437.601496 477.521987 
L 438.64473 477.866269 
L 439.687964 482.320584 
L 440.731199 481.55272 
L 441.774433 477.431933 
L 442.817668 469.691954 
L 443.860902 477.423961 
L 444.904136 475.211868 
L 445.947371 478.582447 
L 446.990605 473.584971 
L 448.03384 480.802577 
L 449.077074 472.525899 
L 450.120308 475.229345 
L 451.163543 472.757807 
L 452.206777 477.39117 
L 454.293246 480.303233 
L 456.379715 472.260287 
L 457.422949 478.995637 
L 458.466184 477.76653 
L 459.509418 478.894768 
L 460.552652 477.190688 
L 461.595887 476.590901 
L 462.639121 479.878783 
L 463.682356 481.078439 
L 464.72559 472.610175 
L 465.768824 476.796601 
L 466.812059 476.723417 
L 467.855293 469.73851 
L 468.898528 476.914513 
L 469.941762 477.546161 
L 470.984996 476.39564 
L 472.028231 474.510837 
L 473.071465 479.114195 
L 474.1147 477.244379 
L 475.157934 483.690774 
L 476.201168 471.263518 
L 477.244403 477.047341 
L 478.287637 480.920192 
L 479.330872 478.875711 
L 480.374106 476.034336 
L 481.417341 477.706924 
L 482.460575 472.887833 
L 483.503809 478.055805 
L 484.547044 478.026093 
L 485.590278 472.899842 
L 486.633513 471.566679 
L 487.676747 484.232727 
L 488.719981 473.393666 
L 489.763216 480.260928 
L 490.80645 477.362343 
L 491.849685 481.724521 
L 492.892919 477.662536 
L 493.936153 472.190322 
L 494.979388 477.040839 
L 496.022622 479.506362 
L 497.065857 480.029419 
L 498.109091 475.694305 
L 498.109091 475.694305 
" clip-path="url(#pce4349129a)" style="fill: none; stroke: #008000; stroke-width: 1.5; stroke-linecap: round"/>
   </g>
   <g id="patch_3">
    <path d="M 72 504 
L 72 69.12 
" style="fill: none"/>
   </g>
   <g id="patch_4">
    <path d="M 518.4 504 
L 518.4 69.12 
" style="fill: none"/>
   </g>
   <g id="patch_5">
    <path d="M 72 504 
L 518.4 504 
" style="fill: none"/>
   </g>
   <g id="patch_6">
    <path d="M 72 69.12 
L 518.4 69.12 
" style="fill: none"/>
   </g>
   <g id="text_14">
    <!-- Training Loss -->
    <g style="fill: #262626" transform="translate(230.778 63.12) scale(0.216 -0.216)">
     <use xlink:href="#ArialMT-54"/>
     <use xlink:href="#ArialMT-72" x="57.333984"/>
     <use xlink:href="#ArialMT-61" x="90.634766"/>
     <use xlink:href="#ArialMT-69" x="146.25"/>
     <use xlink:href="#ArialMT-6e" x="168.466797"/>
     <use xlink:href="#ArialMT-69" x="224.082031"/>
     <use xlink:href="#ArialMT-6e" x="246.298828"/>
     <use xlink:href="#ArialMT-67" x="301.914062"/>
     <use xlink:href="#ArialMT-20" x="357.529297"/>
     <use xlink:href="#ArialMT-4c" x="385.3125"/>
     <use xlink:href="#ArialMT-6f" x="440.927734"/>
     <use xlink:href="#ArialMT-73" x="496.542969"/>
     <use xlink:href="#ArialMT-73" x="546.542969"/>
    </g>
   </g>
   <g id="legend_1">
    <g id="patch_7">
     <path d="M 307.8 125.352 
L 472.77 125.352 
Q 476.37 125.352 476.37 121.752 
L 476.37 97.8795 
Q 476.37 94.2795 472.77 94.2795 
L 307.8 94.2795 
Q 304.2 94.2795 304.2 97.8795 
L 304.2 121.752 
Q 304.2 125.352 307.8 125.352 
z
" style="fill: #eaeaf2; opacity: 0.8; stroke: #000000; stroke-linejoin: miter"/>
    </g>
    <g id="line2d_24">
     <path d="M 311.4 108.063563 
L 329.4 108.063563 
L 347.4 108.063563 
" style="fill: none; stroke: #008000; stroke-width: 1.5; stroke-linecap: round"/>
    </g>
    <g id="text_15">
     <!-- Training Loss -->
     <g style="fill: #262626" transform="translate(361.8 114.363563) scale(0.18 -0.18)">
      <use xlink:href="#ArialMT-54"/>
      <use xlink:href="#ArialMT-72" x="57.333984"/>
      <use xlink:href="#ArialMT-61" x="90.634766"/>
      <use xlink:href="#ArialMT-69" x="146.25"/>
      <use xlink:href="#ArialMT-6e" x="168.466797"/>
      <use xlink:href="#ArialMT-69" x="224.082031"/>
      <use xlink:href="#ArialMT-6e" x="246.298828"/>
      <use xlink:href="#ArialMT-67" x="301.914062"/>
      <use xlink:href="#ArialMT-20" x="357.529297"/>
      <use xlink:href="#ArialMT-4c" x="385.3125"/>
      <use xlink:href="#ArialMT-6f" x="440.927734"/>
      <use xlink:href="#ArialMT-73" x="496.542969"/>
      <use xlink:href="#ArialMT-73" x="546.542969"/>
     </g>
    </g>
   </g>
  </g>
 </g>
 <defs>
  <clipPath id="pce4349129a">
   <rect x="72" y="69.12" width="446.4" height="434.88"/>
  </clipPath>
 </defs>
</svg>
