<?xml version="1.0" encoding="utf-8" standalone="no"?>
<!DOCTYPE svg PUBLIC "-//W3C//DTD SVG 1.1//EN"
  "http://www.w3.org/Graphics/SVG/1.1/DTD/svg11.dtd">
<svg xmlns:xlink="http://www.w3.org/1999/xlink" width="648pt" height="648pt" viewBox="0 0 648 648" xmlns="http://www.w3.org/2000/svg" version="1.1">
 <metadata>
  <rdf:RDF xmlns:dc="http://purl.org/dc/elements/1.1/" xmlns:cc="http://creativecommons.org/ns#" xmlns:rdf="http://www.w3.org/1999/02/22-rdf-syntax-ns#">
   <cc:Work>
    <dc:type rdf:resource="http://purl.org/dc/dcmitype/StillImage"/>
    <dc:date>2023-04-25T05:08:58.291097</dc:date>
    <dc:format>image/svg+xml</dc:format>
    <dc:creator>
     <cc:Agent>
      <dc:title>Matplotlib v3.6.3, https://matplotlib.org/</dc:title>
     </cc:Agent>
    </dc:creator>
   </cc:Work>
  </rdf:RDF>
 </metadata>
 <defs>
  <style type="text/css">*{stroke-linejoin: round; stroke-linecap: butt}</style>
 </defs>
 <g id="figure_1">
  <g id="patch_1">
   <path d="M 0 648 
L 648 648 
L 648 0 
L 0 0 
L 0 648 
z
" style="fill: none"/>
  </g>
  <g id="axes_1">
   <g id="patch_2">
    <path d="M 81 567 
L 583.2 567 
L 583.2 77.76 
L 81 77.76 
z
" style="fill: #eaeaf2"/>
   </g>
   <g id="matplotlib.axis_1">
    <g id="xtick_1">
     <g id="line2d_1">
      <path d="M 103.827273 567 
L 103.827273 77.76 
" clip-path="url(#p4d99a58e8e)" style="fill: none; stroke: #ffffff; stroke-width: 0.8; stroke-linecap: round"/>
     </g>
     <g id="line2d_2"/>
     <g id="text_1">
      <!-- 0.0 -->
      <g style="fill: #262626" transform="translate(91.317273 583.384063) scale(0.18 -0.18)">
       <defs>
        <path id="ArialMT-30" d="M 266 2259 
Q 266 3072 433 3567 
Q 600 4063 929 4331 
Q 1259 4600 1759 4600 
Q 2128 4600 2406 4451 
Q 2684 4303 2865 4023 
Q 3047 3744 3150 3342 
Q 3253 2941 3253 2259 
Q 3253 1453 3087 958 
Q 2922 463 2592 192 
Q 2263 -78 1759 -78 
Q 1097 -78 719 397 
Q 266 969 266 2259 
z
M 844 2259 
Q 844 1131 1108 757 
Q 1372 384 1759 384 
Q 2147 384 2411 759 
Q 2675 1134 2675 2259 
Q 2675 3391 2411 3762 
Q 2147 4134 1753 4134 
Q 1366 4134 1134 3806 
Q 844 3388 844 2259 
z
" transform="scale(0.015625)"/>
        <path id="ArialMT-2e" d="M 581 0 
L 581 641 
L 1222 641 
L 1222 0 
L 581 0 
z
" transform="scale(0.015625)"/>
       </defs>
       <use xlink:href="#ArialMT-30"/>
       <use xlink:href="#ArialMT-2e" x="55.615234"/>
       <use xlink:href="#ArialMT-30" x="83.398438"/>
      </g>
     </g>
    </g>
    <g id="xtick_2">
     <g id="line2d_3">
      <path d="M 188.687023 567 
L 188.687023 77.76 
" clip-path="url(#p4d99a58e8e)" style="fill: none; stroke: #ffffff; stroke-width: 0.8; stroke-linecap: round"/>
     </g>
     <g id="line2d_4"/>
     <g id="text_2">
      <!-- 10000.0 -->
      <g style="fill: #262626" transform="translate(156.157648 583.384063) scale(0.18 -0.18)">
       <defs>
        <path id="ArialMT-31" d="M 2384 0 
L 1822 0 
L 1822 3584 
Q 1619 3391 1289 3197 
Q 959 3003 697 2906 
L 697 3450 
Q 1169 3672 1522 3987 
Q 1875 4303 2022 4600 
L 2384 4600 
L 2384 0 
z
" transform="scale(0.015625)"/>
       </defs>
       <use xlink:href="#ArialMT-31"/>
       <use xlink:href="#ArialMT-30" x="55.615234"/>
       <use xlink:href="#ArialMT-30" x="111.230469"/>
       <use xlink:href="#ArialMT-30" x="166.845703"/>
       <use xlink:href="#ArialMT-30" x="222.460938"/>
       <use xlink:href="#ArialMT-2e" x="278.076172"/>
       <use xlink:href="#ArialMT-30" x="305.859375"/>
      </g>
     </g>
    </g>
    <g id="xtick_3">
     <g id="line2d_5">
      <path d="M 273.546773 567 
L 273.546773 77.76 
" clip-path="url(#p4d99a58e8e)" style="fill: none; stroke: #ffffff; stroke-width: 0.8; stroke-linecap: round"/>
     </g>
     <g id="line2d_6"/>
     <g id="text_3">
      <!-- 20000.0 -->
      <g style="fill: #262626" transform="translate(241.017398 583.384063) scale(0.18 -0.18)">
       <defs>
        <path id="ArialMT-32" d="M 3222 541 
L 3222 0 
L 194 0 
Q 188 203 259 391 
Q 375 700 629 1000 
Q 884 1300 1366 1694 
Q 2113 2306 2375 2664 
Q 2638 3022 2638 3341 
Q 2638 3675 2398 3904 
Q 2159 4134 1775 4134 
Q 1369 4134 1125 3890 
Q 881 3647 878 3216 
L 300 3275 
Q 359 3922 746 4261 
Q 1134 4600 1788 4600 
Q 2447 4600 2831 4234 
Q 3216 3869 3216 3328 
Q 3216 3053 3103 2787 
Q 2991 2522 2730 2228 
Q 2469 1934 1863 1422 
Q 1356 997 1212 845 
Q 1069 694 975 541 
L 3222 541 
z
" transform="scale(0.015625)"/>
       </defs>
       <use xlink:href="#ArialMT-32"/>
       <use xlink:href="#ArialMT-30" x="55.615234"/>
       <use xlink:href="#ArialMT-30" x="111.230469"/>
       <use xlink:href="#ArialMT-30" x="166.845703"/>
       <use xlink:href="#ArialMT-30" x="222.460938"/>
       <use xlink:href="#ArialMT-2e" x="278.076172"/>
       <use xlink:href="#ArialMT-30" x="305.859375"/>
      </g>
     </g>
    </g>
    <g id="xtick_4">
     <g id="line2d_7">
      <path d="M 358.406522 567 
L 358.406522 77.76 
" clip-path="url(#p4d99a58e8e)" style="fill: none; stroke: #ffffff; stroke-width: 0.8; stroke-linecap: round"/>
     </g>
     <g id="line2d_8"/>
     <g id="text_4">
      <!-- 30000.0 -->
      <g style="fill: #262626" transform="translate(325.877147 583.384063) scale(0.18 -0.18)">
       <defs>
        <path id="ArialMT-33" d="M 269 1209 
L 831 1284 
Q 928 806 1161 595 
Q 1394 384 1728 384 
Q 2125 384 2398 659 
Q 2672 934 2672 1341 
Q 2672 1728 2419 1979 
Q 2166 2231 1775 2231 
Q 1616 2231 1378 2169 
L 1441 2663 
Q 1497 2656 1531 2656 
Q 1891 2656 2178 2843 
Q 2466 3031 2466 3422 
Q 2466 3731 2256 3934 
Q 2047 4138 1716 4138 
Q 1388 4138 1169 3931 
Q 950 3725 888 3313 
L 325 3413 
Q 428 3978 793 4289 
Q 1159 4600 1703 4600 
Q 2078 4600 2393 4439 
Q 2709 4278 2876 4000 
Q 3044 3722 3044 3409 
Q 3044 3113 2884 2869 
Q 2725 2625 2413 2481 
Q 2819 2388 3044 2092 
Q 3269 1797 3269 1353 
Q 3269 753 2831 336 
Q 2394 -81 1725 -81 
Q 1122 -81 723 278 
Q 325 638 269 1209 
z
" transform="scale(0.015625)"/>
       </defs>
       <use xlink:href="#ArialMT-33"/>
       <use xlink:href="#ArialMT-30" x="55.615234"/>
       <use xlink:href="#ArialMT-30" x="111.230469"/>
       <use xlink:href="#ArialMT-30" x="166.845703"/>
       <use xlink:href="#ArialMT-30" x="222.460938"/>
       <use xlink:href="#ArialMT-2e" x="278.076172"/>
       <use xlink:href="#ArialMT-30" x="305.859375"/>
      </g>
     </g>
    </g>
    <g id="xtick_5">
     <g id="line2d_9">
      <path d="M 443.266272 567 
L 443.266272 77.76 
" clip-path="url(#p4d99a58e8e)" style="fill: none; stroke: #ffffff; stroke-width: 0.8; stroke-linecap: round"/>
     </g>
     <g id="line2d_10"/>
     <g id="text_5">
      <!-- 40000.0 -->
      <g style="fill: #262626" transform="translate(410.736897 583.384063) scale(0.18 -0.18)">
       <defs>
        <path id="ArialMT-34" d="M 2069 0 
L 2069 1097 
L 81 1097 
L 81 1613 
L 2172 4581 
L 2631 4581 
L 2631 1613 
L 3250 1613 
L 3250 1097 
L 2631 1097 
L 2631 0 
L 2069 0 
z
M 2069 1613 
L 2069 3678 
L 634 1613 
L 2069 1613 
z
" transform="scale(0.015625)"/>
       </defs>
       <use xlink:href="#ArialMT-34"/>
       <use xlink:href="#ArialMT-30" x="55.615234"/>
       <use xlink:href="#ArialMT-30" x="111.230469"/>
       <use xlink:href="#ArialMT-30" x="166.845703"/>
       <use xlink:href="#ArialMT-30" x="222.460938"/>
       <use xlink:href="#ArialMT-2e" x="278.076172"/>
       <use xlink:href="#ArialMT-30" x="305.859375"/>
      </g>
     </g>
    </g>
    <g id="xtick_6">
     <g id="line2d_11">
      <path d="M 528.126022 567 
L 528.126022 77.76 
" clip-path="url(#p4d99a58e8e)" style="fill: none; stroke: #ffffff; stroke-width: 0.8; stroke-linecap: round"/>
     </g>
     <g id="line2d_12"/>
     <g id="text_6">
      <!-- 50000.0 -->
      <g style="fill: #262626" transform="translate(495.596647 583.384063) scale(0.18 -0.18)">
       <defs>
        <path id="ArialMT-35" d="M 266 1200 
L 856 1250 
Q 922 819 1161 601 
Q 1400 384 1738 384 
Q 2144 384 2425 690 
Q 2706 997 2706 1503 
Q 2706 1984 2436 2262 
Q 2166 2541 1728 2541 
Q 1456 2541 1237 2417 
Q 1019 2294 894 2097 
L 366 2166 
L 809 4519 
L 3088 4519 
L 3088 3981 
L 1259 3981 
L 1013 2750 
Q 1425 3038 1878 3038 
Q 2478 3038 2890 2622 
Q 3303 2206 3303 1553 
Q 3303 931 2941 478 
Q 2500 -78 1738 -78 
Q 1113 -78 717 272 
Q 322 622 266 1200 
z
" transform="scale(0.015625)"/>
       </defs>
       <use xlink:href="#ArialMT-35"/>
       <use xlink:href="#ArialMT-30" x="55.615234"/>
       <use xlink:href="#ArialMT-30" x="111.230469"/>
       <use xlink:href="#ArialMT-30" x="166.845703"/>
       <use xlink:href="#ArialMT-30" x="222.460938"/>
       <use xlink:href="#ArialMT-2e" x="278.076172"/>
       <use xlink:href="#ArialMT-30" x="305.859375"/>
      </g>
     </g>
    </g>
    <g id="text_7">
     <!-- Training Iteration -->
     <g style="fill: #262626" transform="translate(264.907969 603.845625) scale(0.18 -0.18)">
      <defs>
       <path id="ArialMT-54" d="M 1659 0 
L 1659 4041 
L 150 4041 
L 150 4581 
L 3781 4581 
L 3781 4041 
L 2266 4041 
L 2266 0 
L 1659 0 
z
" transform="scale(0.015625)"/>
       <path id="ArialMT-72" d="M 416 0 
L 416 3319 
L 922 3319 
L 922 2816 
Q 1116 3169 1280 3281 
Q 1444 3394 1641 3394 
Q 1925 3394 2219 3213 
L 2025 2691 
Q 1819 2813 1613 2813 
Q 1428 2813 1281 2702 
Q 1134 2591 1072 2394 
Q 978 2094 978 1738 
L 978 0 
L 416 0 
z
" transform="scale(0.015625)"/>
       <path id="ArialMT-61" d="M 2588 409 
Q 2275 144 1986 34 
Q 1697 -75 1366 -75 
Q 819 -75 525 192 
Q 231 459 231 875 
Q 231 1119 342 1320 
Q 453 1522 633 1644 
Q 813 1766 1038 1828 
Q 1203 1872 1538 1913 
Q 2219 1994 2541 2106 
Q 2544 2222 2544 2253 
Q 2544 2597 2384 2738 
Q 2169 2928 1744 2928 
Q 1347 2928 1158 2789 
Q 969 2650 878 2297 
L 328 2372 
Q 403 2725 575 2942 
Q 747 3159 1072 3276 
Q 1397 3394 1825 3394 
Q 2250 3394 2515 3294 
Q 2781 3194 2906 3042 
Q 3031 2891 3081 2659 
Q 3109 2516 3109 2141 
L 3109 1391 
Q 3109 606 3145 398 
Q 3181 191 3288 0 
L 2700 0 
Q 2613 175 2588 409 
z
M 2541 1666 
Q 2234 1541 1622 1453 
Q 1275 1403 1131 1340 
Q 988 1278 909 1158 
Q 831 1038 831 891 
Q 831 666 1001 516 
Q 1172 366 1500 366 
Q 1825 366 2078 508 
Q 2331 650 2450 897 
Q 2541 1088 2541 1459 
L 2541 1666 
z
" transform="scale(0.015625)"/>
       <path id="ArialMT-69" d="M 425 3934 
L 425 4581 
L 988 4581 
L 988 3934 
L 425 3934 
z
M 425 0 
L 425 3319 
L 988 3319 
L 988 0 
L 425 0 
z
" transform="scale(0.015625)"/>
       <path id="ArialMT-6e" d="M 422 0 
L 422 3319 
L 928 3319 
L 928 2847 
Q 1294 3394 1984 3394 
Q 2284 3394 2536 3286 
Q 2788 3178 2913 3003 
Q 3038 2828 3088 2588 
Q 3119 2431 3119 2041 
L 3119 0 
L 2556 0 
L 2556 2019 
Q 2556 2363 2490 2533 
Q 2425 2703 2258 2804 
Q 2091 2906 1866 2906 
Q 1506 2906 1245 2678 
Q 984 2450 984 1813 
L 984 0 
L 422 0 
z
" transform="scale(0.015625)"/>
       <path id="ArialMT-67" d="M 319 -275 
L 866 -356 
Q 900 -609 1056 -725 
Q 1266 -881 1628 -881 
Q 2019 -881 2231 -725 
Q 2444 -569 2519 -288 
Q 2563 -116 2559 434 
Q 2191 0 1641 0 
Q 956 0 581 494 
Q 206 988 206 1678 
Q 206 2153 378 2554 
Q 550 2956 876 3175 
Q 1203 3394 1644 3394 
Q 2231 3394 2613 2919 
L 2613 3319 
L 3131 3319 
L 3131 450 
Q 3131 -325 2973 -648 
Q 2816 -972 2473 -1159 
Q 2131 -1347 1631 -1347 
Q 1038 -1347 672 -1080 
Q 306 -813 319 -275 
z
M 784 1719 
Q 784 1066 1043 766 
Q 1303 466 1694 466 
Q 2081 466 2343 764 
Q 2606 1063 2606 1700 
Q 2606 2309 2336 2618 
Q 2066 2928 1684 2928 
Q 1309 2928 1046 2623 
Q 784 2319 784 1719 
z
" transform="scale(0.015625)"/>
       <path id="ArialMT-20" transform="scale(0.015625)"/>
       <path id="ArialMT-49" d="M 597 0 
L 597 4581 
L 1203 4581 
L 1203 0 
L 597 0 
z
" transform="scale(0.015625)"/>
       <path id="ArialMT-74" d="M 1650 503 
L 1731 6 
Q 1494 -44 1306 -44 
Q 1000 -44 831 53 
Q 663 150 594 308 
Q 525 466 525 972 
L 525 2881 
L 113 2881 
L 113 3319 
L 525 3319 
L 525 4141 
L 1084 4478 
L 1084 3319 
L 1650 3319 
L 1650 2881 
L 1084 2881 
L 1084 941 
Q 1084 700 1114 631 
Q 1144 563 1211 522 
Q 1278 481 1403 481 
Q 1497 481 1650 503 
z
" transform="scale(0.015625)"/>
       <path id="ArialMT-65" d="M 2694 1069 
L 3275 997 
Q 3138 488 2766 206 
Q 2394 -75 1816 -75 
Q 1088 -75 661 373 
Q 234 822 234 1631 
Q 234 2469 665 2931 
Q 1097 3394 1784 3394 
Q 2450 3394 2872 2941 
Q 3294 2488 3294 1666 
Q 3294 1616 3291 1516 
L 816 1516 
Q 847 969 1125 678 
Q 1403 388 1819 388 
Q 2128 388 2347 550 
Q 2566 713 2694 1069 
z
M 847 1978 
L 2700 1978 
Q 2663 2397 2488 2606 
Q 2219 2931 1791 2931 
Q 1403 2931 1139 2672 
Q 875 2413 847 1978 
z
" transform="scale(0.015625)"/>
       <path id="ArialMT-6f" d="M 213 1659 
Q 213 2581 725 3025 
Q 1153 3394 1769 3394 
Q 2453 3394 2887 2945 
Q 3322 2497 3322 1706 
Q 3322 1066 3130 698 
Q 2938 331 2570 128 
Q 2203 -75 1769 -75 
Q 1072 -75 642 372 
Q 213 819 213 1659 
z
M 791 1659 
Q 791 1022 1069 705 
Q 1347 388 1769 388 
Q 2188 388 2466 706 
Q 2744 1025 2744 1678 
Q 2744 2294 2464 2611 
Q 2184 2928 1769 2928 
Q 1347 2928 1069 2612 
Q 791 2297 791 1659 
z
" transform="scale(0.015625)"/>
      </defs>
      <use xlink:href="#ArialMT-54"/>
      <use xlink:href="#ArialMT-72" x="57.333984"/>
      <use xlink:href="#ArialMT-61" x="90.634766"/>
      <use xlink:href="#ArialMT-69" x="146.25"/>
      <use xlink:href="#ArialMT-6e" x="168.466797"/>
      <use xlink:href="#ArialMT-69" x="224.082031"/>
      <use xlink:href="#ArialMT-6e" x="246.298828"/>
      <use xlink:href="#ArialMT-67" x="301.914062"/>
      <use xlink:href="#ArialMT-20" x="357.529297"/>
      <use xlink:href="#ArialMT-49" x="385.3125"/>
      <use xlink:href="#ArialMT-74" x="413.095703"/>
      <use xlink:href="#ArialMT-65" x="440.878906"/>
      <use xlink:href="#ArialMT-72" x="496.494141"/>
      <use xlink:href="#ArialMT-61" x="529.794922"/>
      <use xlink:href="#ArialMT-74" x="585.410156"/>
      <use xlink:href="#ArialMT-69" x="613.193359"/>
      <use xlink:href="#ArialMT-6f" x="635.410156"/>
      <use xlink:href="#ArialMT-6e" x="691.025391"/>
     </g>
    </g>
   </g>
   <g id="matplotlib.axis_2">
    <g id="ytick_1">
     <g id="line2d_13">
      <path d="M 81 521.464443 
L 583.2 521.464443 
" clip-path="url(#p4d99a58e8e)" style="fill: none; stroke: #ffffff; stroke-width: 0.8; stroke-linecap: round"/>
     </g>
     <g id="line2d_14"/>
     <g id="text_8">
      <!-- 12 -->
      <g style="fill: #262626" transform="translate(57.480625 527.906474) scale(0.18 -0.18)">
       <use xlink:href="#ArialMT-31"/>
       <use xlink:href="#ArialMT-32" x="55.615234"/>
      </g>
     </g>
    </g>
    <g id="ytick_2">
     <g id="line2d_15">
      <path d="M 81 457.943682 
L 583.2 457.943682 
" clip-path="url(#p4d99a58e8e)" style="fill: none; stroke: #ffffff; stroke-width: 0.8; stroke-linecap: round"/>
     </g>
     <g id="line2d_16"/>
     <g id="text_9">
      <!-- 14 -->
      <g style="fill: #262626" transform="translate(57.480625 464.385713) scale(0.18 -0.18)">
       <use xlink:href="#ArialMT-31"/>
       <use xlink:href="#ArialMT-34" x="55.615234"/>
      </g>
     </g>
    </g>
    <g id="ytick_3">
     <g id="line2d_17">
      <path d="M 81 394.422921 
L 583.2 394.422921 
" clip-path="url(#p4d99a58e8e)" style="fill: none; stroke: #ffffff; stroke-width: 0.8; stroke-linecap: round"/>
     </g>
     <g id="line2d_18"/>
     <g id="text_10">
      <!-- 16 -->
      <g style="fill: #262626" transform="translate(57.480625 400.864952) scale(0.18 -0.18)">
       <defs>
        <path id="ArialMT-36" d="M 3184 3459 
L 2625 3416 
Q 2550 3747 2413 3897 
Q 2184 4138 1850 4138 
Q 1581 4138 1378 3988 
Q 1113 3794 959 3422 
Q 806 3050 800 2363 
Q 1003 2672 1297 2822 
Q 1591 2972 1913 2972 
Q 2475 2972 2870 2558 
Q 3266 2144 3266 1488 
Q 3266 1056 3080 686 
Q 2894 316 2569 119 
Q 2244 -78 1831 -78 
Q 1128 -78 684 439 
Q 241 956 241 2144 
Q 241 3472 731 4075 
Q 1159 4600 1884 4600 
Q 2425 4600 2770 4297 
Q 3116 3994 3184 3459 
z
M 888 1484 
Q 888 1194 1011 928 
Q 1134 663 1356 523 
Q 1578 384 1822 384 
Q 2178 384 2434 671 
Q 2691 959 2691 1453 
Q 2691 1928 2437 2201 
Q 2184 2475 1800 2475 
Q 1419 2475 1153 2201 
Q 888 1928 888 1484 
z
" transform="scale(0.015625)"/>
       </defs>
       <use xlink:href="#ArialMT-31"/>
       <use xlink:href="#ArialMT-36" x="55.615234"/>
      </g>
     </g>
    </g>
    <g id="ytick_4">
     <g id="line2d_19">
      <path d="M 81 330.90216 
L 583.2 330.90216 
" clip-path="url(#p4d99a58e8e)" style="fill: none; stroke: #ffffff; stroke-width: 0.8; stroke-linecap: round"/>
     </g>
     <g id="line2d_20"/>
     <g id="text_11">
      <!-- 18 -->
      <g style="fill: #262626" transform="translate(57.480625 337.344191) scale(0.18 -0.18)">
       <defs>
        <path id="ArialMT-38" d="M 1131 2484 
Q 781 2613 612 2850 
Q 444 3088 444 3419 
Q 444 3919 803 4259 
Q 1163 4600 1759 4600 
Q 2359 4600 2725 4251 
Q 3091 3903 3091 3403 
Q 3091 3084 2923 2848 
Q 2756 2613 2416 2484 
Q 2838 2347 3058 2040 
Q 3278 1734 3278 1309 
Q 3278 722 2862 322 
Q 2447 -78 1769 -78 
Q 1091 -78 675 323 
Q 259 725 259 1325 
Q 259 1772 486 2073 
Q 713 2375 1131 2484 
z
M 1019 3438 
Q 1019 3113 1228 2906 
Q 1438 2700 1772 2700 
Q 2097 2700 2305 2904 
Q 2513 3109 2513 3406 
Q 2513 3716 2298 3927 
Q 2084 4138 1766 4138 
Q 1444 4138 1231 3931 
Q 1019 3725 1019 3438 
z
M 838 1322 
Q 838 1081 952 856 
Q 1066 631 1291 507 
Q 1516 384 1775 384 
Q 2178 384 2440 643 
Q 2703 903 2703 1303 
Q 2703 1709 2433 1975 
Q 2163 2241 1756 2241 
Q 1359 2241 1098 1978 
Q 838 1716 838 1322 
z
" transform="scale(0.015625)"/>
       </defs>
       <use xlink:href="#ArialMT-31"/>
       <use xlink:href="#ArialMT-38" x="55.615234"/>
      </g>
     </g>
    </g>
    <g id="ytick_5">
     <g id="line2d_21">
      <path d="M 81 267.381399 
L 583.2 267.381399 
" clip-path="url(#p4d99a58e8e)" style="fill: none; stroke: #ffffff; stroke-width: 0.8; stroke-linecap: round"/>
     </g>
     <g id="line2d_22"/>
     <g id="text_12">
      <!-- 20 -->
      <g style="fill: #262626" transform="translate(57.480625 273.82343) scale(0.18 -0.18)">
       <use xlink:href="#ArialMT-32"/>
       <use xlink:href="#ArialMT-30" x="55.615234"/>
      </g>
     </g>
    </g>
    <g id="ytick_6">
     <g id="line2d_23">
      <path d="M 81 203.860638 
L 583.2 203.860638 
" clip-path="url(#p4d99a58e8e)" style="fill: none; stroke: #ffffff; stroke-width: 0.8; stroke-linecap: round"/>
     </g>
     <g id="line2d_24"/>
     <g id="text_13">
      <!-- 22 -->
      <g style="fill: #262626" transform="translate(57.480625 210.302669) scale(0.18 -0.18)">
       <use xlink:href="#ArialMT-32"/>
       <use xlink:href="#ArialMT-32" x="55.615234"/>
      </g>
     </g>
    </g>
    <g id="ytick_7">
     <g id="line2d_25">
      <path d="M 81 140.339877 
L 583.2 140.339877 
" clip-path="url(#p4d99a58e8e)" style="fill: none; stroke: #ffffff; stroke-width: 0.8; stroke-linecap: round"/>
     </g>
     <g id="line2d_26"/>
     <g id="text_14">
      <!-- 24 -->
      <g style="fill: #262626" transform="translate(57.480625 146.781908) scale(0.18 -0.18)">
       <use xlink:href="#ArialMT-32"/>
       <use xlink:href="#ArialMT-34" x="55.615234"/>
      </g>
     </g>
    </g>
    <g id="text_15">
     <!-- Loss -->
     <g style="fill: #262626" transform="translate(49.903125 341.389687) rotate(-90) scale(0.18 -0.18)">
      <defs>
       <path id="ArialMT-4c" d="M 469 0 
L 469 4581 
L 1075 4581 
L 1075 541 
L 3331 541 
L 3331 0 
L 469 0 
z
" transform="scale(0.015625)"/>
       <path id="ArialMT-73" d="M 197 991 
L 753 1078 
Q 800 744 1014 566 
Q 1228 388 1613 388 
Q 2000 388 2187 545 
Q 2375 703 2375 916 
Q 2375 1106 2209 1216 
Q 2094 1291 1634 1406 
Q 1016 1563 777 1677 
Q 538 1791 414 1992 
Q 291 2194 291 2438 
Q 291 2659 392 2848 
Q 494 3038 669 3163 
Q 800 3259 1026 3326 
Q 1253 3394 1513 3394 
Q 1903 3394 2198 3281 
Q 2494 3169 2634 2976 
Q 2775 2784 2828 2463 
L 2278 2388 
Q 2241 2644 2061 2787 
Q 1881 2931 1553 2931 
Q 1166 2931 1000 2803 
Q 834 2675 834 2503 
Q 834 2394 903 2306 
Q 972 2216 1119 2156 
Q 1203 2125 1616 2013 
Q 2213 1853 2448 1751 
Q 2684 1650 2818 1456 
Q 2953 1263 2953 975 
Q 2953 694 2789 445 
Q 2625 197 2315 61 
Q 2006 -75 1616 -75 
Q 969 -75 630 194 
Q 291 463 197 991 
z
" transform="scale(0.015625)"/>
      </defs>
      <use xlink:href="#ArialMT-4c"/>
      <use xlink:href="#ArialMT-6f" x="55.615234"/>
      <use xlink:href="#ArialMT-73" x="111.230469"/>
      <use xlink:href="#ArialMT-73" x="161.230469"/>
     </g>
    </g>
   </g>
   <g id="line2d_27">
    <path d="M 103.827273 99.998182 
L 105.524468 109.131121 
L 107.221663 117.383193 
L 110.616053 136.702585 
L 112.313248 142.094037 
L 114.010443 154.553987 
L 115.707638 164.314091 
L 120.799223 198.191495 
L 124.193613 212.468001 
L 127.588003 228.274044 
L 129.285198 231.276477 
L 130.982393 236.965247 
L 132.679588 240.344537 
L 134.376783 243.30293 
L 137.771173 250.887007 
L 139.468368 250.14965 
L 141.165563 255.760941 
L 142.862758 262.650066 
L 144.559953 263.600052 
L 146.257148 269.524592 
L 151.348733 282.005684 
L 153.045928 283.131589 
L 154.743123 287.34934 
L 156.440318 293.959685 
L 158.137513 294.472418 
L 159.834708 303.82889 
L 161.531903 305.847535 
L 163.229098 310.590438 
L 164.926293 317.159287 
L 166.623488 319.108267 
L 168.320683 325.592973 
L 170.017878 331.381515 
L 171.715073 338.666579 
L 173.412268 344.411323 
L 175.109463 351.134888 
L 176.806658 351.861099 
L 178.503853 358.729385 
L 181.898243 370.881053 
L 183.595438 374.004945 
L 185.292633 382.378537 
L 186.989828 388.864333 
L 188.687023 392.936455 
L 190.384218 397.760927 
L 192.081413 403.861779 
L 193.778608 409.224548 
L 195.475803 415.183587 
L 197.172998 417.538289 
L 198.870193 424.489568 
L 200.567388 430.211292 
L 202.264583 432.876033 
L 203.961778 437.556904 
L 205.658973 444.554313 
L 207.356168 444.391115 
L 209.053363 449.648751 
L 210.750558 452.320549 
L 212.447753 457.560768 
L 214.144948 464.441867 
L 215.842143 461.353261 
L 219.236533 471.977058 
L 220.933728 475.012233 
L 222.630923 476.00835 
L 224.328118 475.416865 
L 226.025313 476.980174 
L 227.722508 484.887587 
L 229.419703 485.436001 
L 231.116898 488.695437 
L 232.814093 489.231856 
L 234.511288 493.055032 
L 236.208483 490.574055 
L 237.905678 493.483622 
L 239.602873 496.019029 
L 241.300068 499.543161 
L 242.997263 499.305573 
L 244.694458 500.195708 
L 246.391653 502.224348 
L 248.088848 503.320509 
L 249.786043 502.424771 
L 251.483238 506.315219 
L 253.180433 507.490192 
L 254.877628 511.711639 
L 256.574823 509.069433 
L 258.272018 511.645972 
L 259.969213 509.496872 
L 261.666408 514.567382 
L 263.363603 512.777238 
L 265.060798 518.30699 
L 266.757993 516.705093 
L 268.455188 520.498101 
L 270.152383 516.923689 
L 271.849578 517.789048 
L 273.546773 517.874947 
L 275.243968 520.627435 
L 276.941163 521.259719 
L 278.638358 520.97897 
L 280.335553 520.149565 
L 282.032748 521.036792 
L 283.729943 522.457833 
L 285.427138 525.572609 
L 287.124333 527.069282 
L 288.821528 524.804599 
L 292.215918 525.261661 
L 293.913113 528.942963 
L 295.610308 526.442268 
L 299.004698 529.124395 
L 300.701893 528.623868 
L 302.399088 530.142471 
L 304.096283 531.301179 
L 305.793478 532.152241 
L 307.490673 527.301599 
L 309.187868 524.543841 
L 310.885063 528.80427 
L 312.582258 532.045865 
L 314.279453 528.539271 
L 315.976648 530.07008 
L 317.673843 534.726023 
L 319.371038 529.591513 
L 321.068233 532.991611 
L 322.765428 529.6709 
L 324.462623 530.458597 
L 326.159818 530.559006 
L 327.857013 530.78993 
L 329.554208 531.58844 
L 331.251403 533.887289 
L 332.948597 534.013352 
L 334.645792 531.286458 
L 336.342987 531.799131 
L 338.040182 531.932766 
L 339.737377 533.866783 
L 341.434572 531.528983 
L 343.131767 532.222935 
L 344.828962 529.691376 
L 346.526157 530.870498 
L 348.223352 537.314223 
L 349.920547 536.428359 
L 351.617742 531.098454 
L 353.314937 537.104683 
L 355.012132 533.760832 
L 356.709327 535.12184 
L 358.406522 537.218298 
L 360.103717 537.345512 
L 361.800912 535.285613 
L 363.498107 534.197055 
L 365.195302 534.839849 
L 366.892497 539.363702 
L 368.589692 534.444395 
L 370.286887 534.249394 
L 371.984082 531.676036 
L 373.681277 533.691197 
L 377.075667 536.608852 
L 378.772862 532.106474 
L 380.470057 536.195194 
L 382.167252 534.82319 
L 383.864447 535.375663 
L 385.561642 535.504634 
L 387.258837 534.20175 
L 388.956032 534.342109 
L 390.653227 539.669894 
L 392.350422 539.702061 
L 394.047617 536.519014 
L 395.744812 537.080876 
L 397.442007 537.0614 
L 399.139202 534.431462 
L 400.836397 536.582621 
L 402.533592 536.264465 
L 404.230787 541.492841 
L 405.927982 536.502931 
L 407.625177 539.584933 
L 409.322372 533.068666 
L 411.019567 533.80154 
L 412.716762 536.331888 
L 414.413957 538.101678 
L 416.111152 540.337859 
L 417.808347 537.088055 
L 419.505542 539.377938 
L 421.202737 535.118206 
L 422.899932 537.46585 
L 424.597127 541.095782 
L 426.294322 540.478824 
L 427.991517 534.676258 
L 429.688712 537.6471 
L 431.385907 538.771521 
L 433.083102 536.168449 
L 434.780297 540.898812 
L 436.477492 532.279636 
L 438.174687 535.093611 
L 439.871882 534.734625 
L 441.569077 536.09739 
L 443.266272 539.365277 
L 444.963467 541.219573 
L 446.660662 537.401244 
L 448.357857 538.000816 
L 450.055052 537.343755 
L 451.752247 538.492225 
L 453.449442 535.77354 
L 455.146637 539.702334 
L 456.843832 538.811926 
L 458.541027 534.39775 
L 460.238222 535.536134 
L 461.935417 534.337475 
L 463.632612 538.990238 
L 465.329807 539.704848 
L 467.027002 538.905095 
L 468.724197 535.397471 
L 470.421392 540.622515 
L 472.118587 538.132361 
L 473.815782 537.199761 
L 475.512977 537.530911 
L 477.210172 540.874127 
L 478.907367 537.744055 
L 480.604562 533.697376 
L 482.301757 536.506202 
L 483.998952 537.445496 
L 485.696147 538.18461 
L 487.393342 540.090397 
L 489.090537 539.98384 
L 490.787732 536.470279 
L 492.484927 537.99606 
L 494.182122 538.274174 
L 495.879317 539.864592 
L 497.576512 538.971247 
L 499.273707 538.7767 
L 500.970902 540.303814 
L 502.668097 540.081371 
L 504.365292 534.599869 
L 506.062487 539.469078 
L 507.759682 540.293304 
L 509.456877 538.878562 
L 511.154072 537.768801 
L 512.851267 538.36389 
L 514.548462 536.776683 
L 516.245657 537.843252 
L 517.942852 544.748915 
L 519.640047 540.994344 
L 521.337242 541.292328 
L 523.034437 544.761818 
L 524.731632 539.463202 
L 526.428827 538.168193 
L 528.126022 540.365755 
L 529.823217 537.731001 
L 531.520412 537.513555 
L 533.217607 535.600468 
L 534.914802 539.452722 
L 536.611997 538.175977 
L 538.309192 541.545968 
L 540.006387 537.516312 
L 541.703582 538.623225 
L 543.400777 537.614327 
L 545.097972 539.031583 
L 546.795167 539.269473 
L 548.492362 540.513656 
L 550.189557 539.799077 
L 551.886752 540.059139 
L 553.583947 538.741807 
L 556.978337 537.693139 
L 558.675532 540.653531 
L 560.372727 536.854344 
L 560.372727 536.854344 
" clip-path="url(#p4d99a58e8e)" style="fill: none; stroke: #008000; stroke-width: 1.5; stroke-linecap: round"/>
    <defs>
     <path id="m05530eafc4" d="M 0 1.25 
C 0.331504 1.25 0.649475 1.118292 0.883883 0.883883 
C 1.118292 0.649475 1.25 0.331504 1.25 0 
C 1.25 -0.331504 1.118292 -0.649475 0.883883 -0.883883 
C 0.649475 -1.118292 0.331504 -1.25 0 -1.25 
C -0.331504 -1.25 -0.649475 -1.118292 -0.883883 -0.883883 
C -1.118292 -0.649475 -1.25 -0.331504 -1.25 0 
C -1.25 0.331504 -1.118292 0.649475 -0.883883 0.883883 
C -0.649475 1.118292 -0.331504 1.25 0 1.25 
z
" style="stroke: #008000"/>
    </defs>
    <g clip-path="url(#p4d99a58e8e)">
     <use xlink:href="#m05530eafc4" x="103.827273" y="99.998182" style="fill: #008000; stroke: #008000"/>
     <use xlink:href="#m05530eafc4" x="105.524468" y="109.131121" style="fill: #008000; stroke: #008000"/>
     <use xlink:href="#m05530eafc4" x="107.221663" y="117.383193" style="fill: #008000; stroke: #008000"/>
     <use xlink:href="#m05530eafc4" x="108.918858" y="126.755718" style="fill: #008000; stroke: #008000"/>
     <use xlink:href="#m05530eafc4" x="110.616053" y="136.702585" style="fill: #008000; stroke: #008000"/>
     <use xlink:href="#m05530eafc4" x="112.313248" y="142.094037" style="fill: #008000; stroke: #008000"/>
     <use xlink:href="#m05530eafc4" x="114.010443" y="154.553987" style="fill: #008000; stroke: #008000"/>
     <use xlink:href="#m05530eafc4" x="115.707638" y="164.314091" style="fill: #008000; stroke: #008000"/>
     <use xlink:href="#m05530eafc4" x="117.404833" y="175.85598" style="fill: #008000; stroke: #008000"/>
     <use xlink:href="#m05530eafc4" x="119.102028" y="187.873648" style="fill: #008000; stroke: #008000"/>
     <use xlink:href="#m05530eafc4" x="120.799223" y="198.191495" style="fill: #008000; stroke: #008000"/>
     <use xlink:href="#m05530eafc4" x="122.496418" y="205.339713" style="fill: #008000; stroke: #008000"/>
     <use xlink:href="#m05530eafc4" x="124.193613" y="212.468001" style="fill: #008000; stroke: #008000"/>
     <use xlink:href="#m05530eafc4" x="125.890808" y="220.155849" style="fill: #008000; stroke: #008000"/>
     <use xlink:href="#m05530eafc4" x="127.588003" y="228.274044" style="fill: #008000; stroke: #008000"/>
     <use xlink:href="#m05530eafc4" x="129.285198" y="231.276477" style="fill: #008000; stroke: #008000"/>
     <use xlink:href="#m05530eafc4" x="130.982393" y="236.965247" style="fill: #008000; stroke: #008000"/>
     <use xlink:href="#m05530eafc4" x="132.679588" y="240.344537" style="fill: #008000; stroke: #008000"/>
     <use xlink:href="#m05530eafc4" x="134.376783" y="243.30293" style="fill: #008000; stroke: #008000"/>
     <use xlink:href="#m05530eafc4" x="136.073978" y="247.008614" style="fill: #008000; stroke: #008000"/>
     <use xlink:href="#m05530eafc4" x="137.771173" y="250.887007" style="fill: #008000; stroke: #008000"/>
     <use xlink:href="#m05530eafc4" x="139.468368" y="250.14965" style="fill: #008000; stroke: #008000"/>
     <use xlink:href="#m05530eafc4" x="141.165563" y="255.760941" style="fill: #008000; stroke: #008000"/>
     <use xlink:href="#m05530eafc4" x="142.862758" y="262.650066" style="fill: #008000; stroke: #008000"/>
     <use xlink:href="#m05530eafc4" x="144.559953" y="263.600052" style="fill: #008000; stroke: #008000"/>
     <use xlink:href="#m05530eafc4" x="146.257148" y="269.524592" style="fill: #008000; stroke: #008000"/>
     <use xlink:href="#m05530eafc4" x="147.954343" y="273.625004" style="fill: #008000; stroke: #008000"/>
     <use xlink:href="#m05530eafc4" x="149.651538" y="277.752494" style="fill: #008000; stroke: #008000"/>
     <use xlink:href="#m05530eafc4" x="151.348733" y="282.005684" style="fill: #008000; stroke: #008000"/>
     <use xlink:href="#m05530eafc4" x="153.045928" y="283.131589" style="fill: #008000; stroke: #008000"/>
     <use xlink:href="#m05530eafc4" x="154.743123" y="287.34934" style="fill: #008000; stroke: #008000"/>
     <use xlink:href="#m05530eafc4" x="156.440318" y="293.959685" style="fill: #008000; stroke: #008000"/>
     <use xlink:href="#m05530eafc4" x="158.137513" y="294.472418" style="fill: #008000; stroke: #008000"/>
     <use xlink:href="#m05530eafc4" x="159.834708" y="303.82889" style="fill: #008000; stroke: #008000"/>
     <use xlink:href="#m05530eafc4" x="161.531903" y="305.847535" style="fill: #008000; stroke: #008000"/>
     <use xlink:href="#m05530eafc4" x="163.229098" y="310.590438" style="fill: #008000; stroke: #008000"/>
     <use xlink:href="#m05530eafc4" x="164.926293" y="317.159287" style="fill: #008000; stroke: #008000"/>
     <use xlink:href="#m05530eafc4" x="166.623488" y="319.108267" style="fill: #008000; stroke: #008000"/>
     <use xlink:href="#m05530eafc4" x="168.320683" y="325.592973" style="fill: #008000; stroke: #008000"/>
     <use xlink:href="#m05530eafc4" x="170.017878" y="331.381515" style="fill: #008000; stroke: #008000"/>
     <use xlink:href="#m05530eafc4" x="171.715073" y="338.666579" style="fill: #008000; stroke: #008000"/>
     <use xlink:href="#m05530eafc4" x="173.412268" y="344.411323" style="fill: #008000; stroke: #008000"/>
     <use xlink:href="#m05530eafc4" x="175.109463" y="351.134888" style="fill: #008000; stroke: #008000"/>
     <use xlink:href="#m05530eafc4" x="176.806658" y="351.861099" style="fill: #008000; stroke: #008000"/>
     <use xlink:href="#m05530eafc4" x="178.503853" y="358.729385" style="fill: #008000; stroke: #008000"/>
     <use xlink:href="#m05530eafc4" x="180.201048" y="364.928404" style="fill: #008000; stroke: #008000"/>
     <use xlink:href="#m05530eafc4" x="181.898243" y="370.881053" style="fill: #008000; stroke: #008000"/>
     <use xlink:href="#m05530eafc4" x="183.595438" y="374.004945" style="fill: #008000; stroke: #008000"/>
     <use xlink:href="#m05530eafc4" x="185.292633" y="382.378537" style="fill: #008000; stroke: #008000"/>
     <use xlink:href="#m05530eafc4" x="186.989828" y="388.864333" style="fill: #008000; stroke: #008000"/>
     <use xlink:href="#m05530eafc4" x="188.687023" y="392.936455" style="fill: #008000; stroke: #008000"/>
     <use xlink:href="#m05530eafc4" x="190.384218" y="397.760927" style="fill: #008000; stroke: #008000"/>
     <use xlink:href="#m05530eafc4" x="192.081413" y="403.861779" style="fill: #008000; stroke: #008000"/>
     <use xlink:href="#m05530eafc4" x="193.778608" y="409.224548" style="fill: #008000; stroke: #008000"/>
     <use xlink:href="#m05530eafc4" x="195.475803" y="415.183587" style="fill: #008000; stroke: #008000"/>
     <use xlink:href="#m05530eafc4" x="197.172998" y="417.538289" style="fill: #008000; stroke: #008000"/>
     <use xlink:href="#m05530eafc4" x="198.870193" y="424.489568" style="fill: #008000; stroke: #008000"/>
     <use xlink:href="#m05530eafc4" x="200.567388" y="430.211292" style="fill: #008000; stroke: #008000"/>
     <use xlink:href="#m05530eafc4" x="202.264583" y="432.876033" style="fill: #008000; stroke: #008000"/>
     <use xlink:href="#m05530eafc4" x="203.961778" y="437.556904" style="fill: #008000; stroke: #008000"/>
     <use xlink:href="#m05530eafc4" x="205.658973" y="444.554313" style="fill: #008000; stroke: #008000"/>
     <use xlink:href="#m05530eafc4" x="207.356168" y="444.391115" style="fill: #008000; stroke: #008000"/>
     <use xlink:href="#m05530eafc4" x="209.053363" y="449.648751" style="fill: #008000; stroke: #008000"/>
     <use xlink:href="#m05530eafc4" x="210.750558" y="452.320549" style="fill: #008000; stroke: #008000"/>
     <use xlink:href="#m05530eafc4" x="212.447753" y="457.560768" style="fill: #008000; stroke: #008000"/>
     <use xlink:href="#m05530eafc4" x="214.144948" y="464.441867" style="fill: #008000; stroke: #008000"/>
     <use xlink:href="#m05530eafc4" x="215.842143" y="461.353261" style="fill: #008000; stroke: #008000"/>
     <use xlink:href="#m05530eafc4" x="217.539338" y="466.625132" style="fill: #008000; stroke: #008000"/>
     <use xlink:href="#m05530eafc4" x="219.236533" y="471.977058" style="fill: #008000; stroke: #008000"/>
     <use xlink:href="#m05530eafc4" x="220.933728" y="475.012233" style="fill: #008000; stroke: #008000"/>
     <use xlink:href="#m05530eafc4" x="222.630923" y="476.00835" style="fill: #008000; stroke: #008000"/>
     <use xlink:href="#m05530eafc4" x="224.328118" y="475.416865" style="fill: #008000; stroke: #008000"/>
     <use xlink:href="#m05530eafc4" x="226.025313" y="476.980174" style="fill: #008000; stroke: #008000"/>
     <use xlink:href="#m05530eafc4" x="227.722508" y="484.887587" style="fill: #008000; stroke: #008000"/>
     <use xlink:href="#m05530eafc4" x="229.419703" y="485.436001" style="fill: #008000; stroke: #008000"/>
     <use xlink:href="#m05530eafc4" x="231.116898" y="488.695437" style="fill: #008000; stroke: #008000"/>
     <use xlink:href="#m05530eafc4" x="232.814093" y="489.231856" style="fill: #008000; stroke: #008000"/>
     <use xlink:href="#m05530eafc4" x="234.511288" y="493.055032" style="fill: #008000; stroke: #008000"/>
     <use xlink:href="#m05530eafc4" x="236.208483" y="490.574055" style="fill: #008000; stroke: #008000"/>
     <use xlink:href="#m05530eafc4" x="237.905678" y="493.483622" style="fill: #008000; stroke: #008000"/>
     <use xlink:href="#m05530eafc4" x="239.602873" y="496.019029" style="fill: #008000; stroke: #008000"/>
     <use xlink:href="#m05530eafc4" x="241.300068" y="499.543161" style="fill: #008000; stroke: #008000"/>
     <use xlink:href="#m05530eafc4" x="242.997263" y="499.305573" style="fill: #008000; stroke: #008000"/>
     <use xlink:href="#m05530eafc4" x="244.694458" y="500.195708" style="fill: #008000; stroke: #008000"/>
     <use xlink:href="#m05530eafc4" x="246.391653" y="502.224348" style="fill: #008000; stroke: #008000"/>
     <use xlink:href="#m05530eafc4" x="248.088848" y="503.320509" style="fill: #008000; stroke: #008000"/>
     <use xlink:href="#m05530eafc4" x="249.786043" y="502.424771" style="fill: #008000; stroke: #008000"/>
     <use xlink:href="#m05530eafc4" x="251.483238" y="506.315219" style="fill: #008000; stroke: #008000"/>
     <use xlink:href="#m05530eafc4" x="253.180433" y="507.490192" style="fill: #008000; stroke: #008000"/>
     <use xlink:href="#m05530eafc4" x="254.877628" y="511.711639" style="fill: #008000; stroke: #008000"/>
     <use xlink:href="#m05530eafc4" x="256.574823" y="509.069433" style="fill: #008000; stroke: #008000"/>
     <use xlink:href="#m05530eafc4" x="258.272018" y="511.645972" style="fill: #008000; stroke: #008000"/>
     <use xlink:href="#m05530eafc4" x="259.969213" y="509.496872" style="fill: #008000; stroke: #008000"/>
     <use xlink:href="#m05530eafc4" x="261.666408" y="514.567382" style="fill: #008000; stroke: #008000"/>
     <use xlink:href="#m05530eafc4" x="263.363603" y="512.777238" style="fill: #008000; stroke: #008000"/>
     <use xlink:href="#m05530eafc4" x="265.060798" y="518.30699" style="fill: #008000; stroke: #008000"/>
     <use xlink:href="#m05530eafc4" x="266.757993" y="516.705093" style="fill: #008000; stroke: #008000"/>
     <use xlink:href="#m05530eafc4" x="268.455188" y="520.498101" style="fill: #008000; stroke: #008000"/>
     <use xlink:href="#m05530eafc4" x="270.152383" y="516.923689" style="fill: #008000; stroke: #008000"/>
     <use xlink:href="#m05530eafc4" x="271.849578" y="517.789048" style="fill: #008000; stroke: #008000"/>
     <use xlink:href="#m05530eafc4" x="273.546773" y="517.874947" style="fill: #008000; stroke: #008000"/>
     <use xlink:href="#m05530eafc4" x="275.243968" y="520.627435" style="fill: #008000; stroke: #008000"/>
     <use xlink:href="#m05530eafc4" x="276.941163" y="521.259719" style="fill: #008000; stroke: #008000"/>
     <use xlink:href="#m05530eafc4" x="278.638358" y="520.97897" style="fill: #008000; stroke: #008000"/>
     <use xlink:href="#m05530eafc4" x="280.335553" y="520.149565" style="fill: #008000; stroke: #008000"/>
     <use xlink:href="#m05530eafc4" x="282.032748" y="521.036792" style="fill: #008000; stroke: #008000"/>
     <use xlink:href="#m05530eafc4" x="283.729943" y="522.457833" style="fill: #008000; stroke: #008000"/>
     <use xlink:href="#m05530eafc4" x="285.427138" y="525.572609" style="fill: #008000; stroke: #008000"/>
     <use xlink:href="#m05530eafc4" x="287.124333" y="527.069282" style="fill: #008000; stroke: #008000"/>
     <use xlink:href="#m05530eafc4" x="288.821528" y="524.804599" style="fill: #008000; stroke: #008000"/>
     <use xlink:href="#m05530eafc4" x="290.518723" y="525.000873" style="fill: #008000; stroke: #008000"/>
     <use xlink:href="#m05530eafc4" x="292.215918" y="525.261661" style="fill: #008000; stroke: #008000"/>
     <use xlink:href="#m05530eafc4" x="293.913113" y="528.942963" style="fill: #008000; stroke: #008000"/>
     <use xlink:href="#m05530eafc4" x="295.610308" y="526.442268" style="fill: #008000; stroke: #008000"/>
     <use xlink:href="#m05530eafc4" x="297.307503" y="527.804549" style="fill: #008000; stroke: #008000"/>
     <use xlink:href="#m05530eafc4" x="299.004698" y="529.124395" style="fill: #008000; stroke: #008000"/>
     <use xlink:href="#m05530eafc4" x="300.701893" y="528.623868" style="fill: #008000; stroke: #008000"/>
     <use xlink:href="#m05530eafc4" x="302.399088" y="530.142471" style="fill: #008000; stroke: #008000"/>
     <use xlink:href="#m05530eafc4" x="304.096283" y="531.301179" style="fill: #008000; stroke: #008000"/>
     <use xlink:href="#m05530eafc4" x="305.793478" y="532.152241" style="fill: #008000; stroke: #008000"/>
     <use xlink:href="#m05530eafc4" x="307.490673" y="527.301599" style="fill: #008000; stroke: #008000"/>
     <use xlink:href="#m05530eafc4" x="309.187868" y="524.543841" style="fill: #008000; stroke: #008000"/>
     <use xlink:href="#m05530eafc4" x="310.885063" y="528.80427" style="fill: #008000; stroke: #008000"/>
     <use xlink:href="#m05530eafc4" x="312.582258" y="532.045865" style="fill: #008000; stroke: #008000"/>
     <use xlink:href="#m05530eafc4" x="314.279453" y="528.539271" style="fill: #008000; stroke: #008000"/>
     <use xlink:href="#m05530eafc4" x="315.976648" y="530.07008" style="fill: #008000; stroke: #008000"/>
     <use xlink:href="#m05530eafc4" x="317.673843" y="534.726023" style="fill: #008000; stroke: #008000"/>
     <use xlink:href="#m05530eafc4" x="319.371038" y="529.591513" style="fill: #008000; stroke: #008000"/>
     <use xlink:href="#m05530eafc4" x="321.068233" y="532.991611" style="fill: #008000; stroke: #008000"/>
     <use xlink:href="#m05530eafc4" x="322.765428" y="529.6709" style="fill: #008000; stroke: #008000"/>
     <use xlink:href="#m05530eafc4" x="324.462623" y="530.458597" style="fill: #008000; stroke: #008000"/>
     <use xlink:href="#m05530eafc4" x="326.159818" y="530.559006" style="fill: #008000; stroke: #008000"/>
     <use xlink:href="#m05530eafc4" x="327.857013" y="530.78993" style="fill: #008000; stroke: #008000"/>
     <use xlink:href="#m05530eafc4" x="329.554208" y="531.58844" style="fill: #008000; stroke: #008000"/>
     <use xlink:href="#m05530eafc4" x="331.251403" y="533.887289" style="fill: #008000; stroke: #008000"/>
     <use xlink:href="#m05530eafc4" x="332.948597" y="534.013352" style="fill: #008000; stroke: #008000"/>
     <use xlink:href="#m05530eafc4" x="334.645792" y="531.286458" style="fill: #008000; stroke: #008000"/>
     <use xlink:href="#m05530eafc4" x="336.342987" y="531.799131" style="fill: #008000; stroke: #008000"/>
     <use xlink:href="#m05530eafc4" x="338.040182" y="531.932766" style="fill: #008000; stroke: #008000"/>
     <use xlink:href="#m05530eafc4" x="339.737377" y="533.866783" style="fill: #008000; stroke: #008000"/>
     <use xlink:href="#m05530eafc4" x="341.434572" y="531.528983" style="fill: #008000; stroke: #008000"/>
     <use xlink:href="#m05530eafc4" x="343.131767" y="532.222935" style="fill: #008000; stroke: #008000"/>
     <use xlink:href="#m05530eafc4" x="344.828962" y="529.691376" style="fill: #008000; stroke: #008000"/>
     <use xlink:href="#m05530eafc4" x="346.526157" y="530.870498" style="fill: #008000; stroke: #008000"/>
     <use xlink:href="#m05530eafc4" x="348.223352" y="537.314223" style="fill: #008000; stroke: #008000"/>
     <use xlink:href="#m05530eafc4" x="349.920547" y="536.428359" style="fill: #008000; stroke: #008000"/>
     <use xlink:href="#m05530eafc4" x="351.617742" y="531.098454" style="fill: #008000; stroke: #008000"/>
     <use xlink:href="#m05530eafc4" x="353.314937" y="537.104683" style="fill: #008000; stroke: #008000"/>
     <use xlink:href="#m05530eafc4" x="355.012132" y="533.760832" style="fill: #008000; stroke: #008000"/>
     <use xlink:href="#m05530eafc4" x="356.709327" y="535.12184" style="fill: #008000; stroke: #008000"/>
     <use xlink:href="#m05530eafc4" x="358.406522" y="537.218298" style="fill: #008000; stroke: #008000"/>
     <use xlink:href="#m05530eafc4" x="360.103717" y="537.345512" style="fill: #008000; stroke: #008000"/>
     <use xlink:href="#m05530eafc4" x="361.800912" y="535.285613" style="fill: #008000; stroke: #008000"/>
     <use xlink:href="#m05530eafc4" x="363.498107" y="534.197055" style="fill: #008000; stroke: #008000"/>
     <use xlink:href="#m05530eafc4" x="365.195302" y="534.839849" style="fill: #008000; stroke: #008000"/>
     <use xlink:href="#m05530eafc4" x="366.892497" y="539.363702" style="fill: #008000; stroke: #008000"/>
     <use xlink:href="#m05530eafc4" x="368.589692" y="534.444395" style="fill: #008000; stroke: #008000"/>
     <use xlink:href="#m05530eafc4" x="370.286887" y="534.249394" style="fill: #008000; stroke: #008000"/>
     <use xlink:href="#m05530eafc4" x="371.984082" y="531.676036" style="fill: #008000; stroke: #008000"/>
     <use xlink:href="#m05530eafc4" x="373.681277" y="533.691197" style="fill: #008000; stroke: #008000"/>
     <use xlink:href="#m05530eafc4" x="375.378472" y="535.081253" style="fill: #008000; stroke: #008000"/>
     <use xlink:href="#m05530eafc4" x="377.075667" y="536.608852" style="fill: #008000; stroke: #008000"/>
     <use xlink:href="#m05530eafc4" x="378.772862" y="532.106474" style="fill: #008000; stroke: #008000"/>
     <use xlink:href="#m05530eafc4" x="380.470057" y="536.195194" style="fill: #008000; stroke: #008000"/>
     <use xlink:href="#m05530eafc4" x="382.167252" y="534.82319" style="fill: #008000; stroke: #008000"/>
     <use xlink:href="#m05530eafc4" x="383.864447" y="535.375663" style="fill: #008000; stroke: #008000"/>
     <use xlink:href="#m05530eafc4" x="385.561642" y="535.504634" style="fill: #008000; stroke: #008000"/>
     <use xlink:href="#m05530eafc4" x="387.258837" y="534.20175" style="fill: #008000; stroke: #008000"/>
     <use xlink:href="#m05530eafc4" x="388.956032" y="534.342109" style="fill: #008000; stroke: #008000"/>
     <use xlink:href="#m05530eafc4" x="390.653227" y="539.669894" style="fill: #008000; stroke: #008000"/>
     <use xlink:href="#m05530eafc4" x="392.350422" y="539.702061" style="fill: #008000; stroke: #008000"/>
     <use xlink:href="#m05530eafc4" x="394.047617" y="536.519014" style="fill: #008000; stroke: #008000"/>
     <use xlink:href="#m05530eafc4" x="395.744812" y="537.080876" style="fill: #008000; stroke: #008000"/>
     <use xlink:href="#m05530eafc4" x="397.442007" y="537.0614" style="fill: #008000; stroke: #008000"/>
     <use xlink:href="#m05530eafc4" x="399.139202" y="534.431462" style="fill: #008000; stroke: #008000"/>
     <use xlink:href="#m05530eafc4" x="400.836397" y="536.582621" style="fill: #008000; stroke: #008000"/>
     <use xlink:href="#m05530eafc4" x="402.533592" y="536.264465" style="fill: #008000; stroke: #008000"/>
     <use xlink:href="#m05530eafc4" x="404.230787" y="541.492841" style="fill: #008000; stroke: #008000"/>
     <use xlink:href="#m05530eafc4" x="405.927982" y="536.502931" style="fill: #008000; stroke: #008000"/>
     <use xlink:href="#m05530eafc4" x="407.625177" y="539.584933" style="fill: #008000; stroke: #008000"/>
     <use xlink:href="#m05530eafc4" x="409.322372" y="533.068666" style="fill: #008000; stroke: #008000"/>
     <use xlink:href="#m05530eafc4" x="411.019567" y="533.80154" style="fill: #008000; stroke: #008000"/>
     <use xlink:href="#m05530eafc4" x="412.716762" y="536.331888" style="fill: #008000; stroke: #008000"/>
     <use xlink:href="#m05530eafc4" x="414.413957" y="538.101678" style="fill: #008000; stroke: #008000"/>
     <use xlink:href="#m05530eafc4" x="416.111152" y="540.337859" style="fill: #008000; stroke: #008000"/>
     <use xlink:href="#m05530eafc4" x="417.808347" y="537.088055" style="fill: #008000; stroke: #008000"/>
     <use xlink:href="#m05530eafc4" x="419.505542" y="539.377938" style="fill: #008000; stroke: #008000"/>
     <use xlink:href="#m05530eafc4" x="421.202737" y="535.118206" style="fill: #008000; stroke: #008000"/>
     <use xlink:href="#m05530eafc4" x="422.899932" y="537.46585" style="fill: #008000; stroke: #008000"/>
     <use xlink:href="#m05530eafc4" x="424.597127" y="541.095782" style="fill: #008000; stroke: #008000"/>
     <use xlink:href="#m05530eafc4" x="426.294322" y="540.478824" style="fill: #008000; stroke: #008000"/>
     <use xlink:href="#m05530eafc4" x="427.991517" y="534.676258" style="fill: #008000; stroke: #008000"/>
     <use xlink:href="#m05530eafc4" x="429.688712" y="537.6471" style="fill: #008000; stroke: #008000"/>
     <use xlink:href="#m05530eafc4" x="431.385907" y="538.771521" style="fill: #008000; stroke: #008000"/>
     <use xlink:href="#m05530eafc4" x="433.083102" y="536.168449" style="fill: #008000; stroke: #008000"/>
     <use xlink:href="#m05530eafc4" x="434.780297" y="540.898812" style="fill: #008000; stroke: #008000"/>
     <use xlink:href="#m05530eafc4" x="436.477492" y="532.279636" style="fill: #008000; stroke: #008000"/>
     <use xlink:href="#m05530eafc4" x="438.174687" y="535.093611" style="fill: #008000; stroke: #008000"/>
     <use xlink:href="#m05530eafc4" x="439.871882" y="534.734625" style="fill: #008000; stroke: #008000"/>
     <use xlink:href="#m05530eafc4" x="441.569077" y="536.09739" style="fill: #008000; stroke: #008000"/>
     <use xlink:href="#m05530eafc4" x="443.266272" y="539.365277" style="fill: #008000; stroke: #008000"/>
     <use xlink:href="#m05530eafc4" x="444.963467" y="541.219573" style="fill: #008000; stroke: #008000"/>
     <use xlink:href="#m05530eafc4" x="446.660662" y="537.401244" style="fill: #008000; stroke: #008000"/>
     <use xlink:href="#m05530eafc4" x="448.357857" y="538.000816" style="fill: #008000; stroke: #008000"/>
     <use xlink:href="#m05530eafc4" x="450.055052" y="537.343755" style="fill: #008000; stroke: #008000"/>
     <use xlink:href="#m05530eafc4" x="451.752247" y="538.492225" style="fill: #008000; stroke: #008000"/>
     <use xlink:href="#m05530eafc4" x="453.449442" y="535.77354" style="fill: #008000; stroke: #008000"/>
     <use xlink:href="#m05530eafc4" x="455.146637" y="539.702334" style="fill: #008000; stroke: #008000"/>
     <use xlink:href="#m05530eafc4" x="456.843832" y="538.811926" style="fill: #008000; stroke: #008000"/>
     <use xlink:href="#m05530eafc4" x="458.541027" y="534.39775" style="fill: #008000; stroke: #008000"/>
     <use xlink:href="#m05530eafc4" x="460.238222" y="535.536134" style="fill: #008000; stroke: #008000"/>
     <use xlink:href="#m05530eafc4" x="461.935417" y="534.337475" style="fill: #008000; stroke: #008000"/>
     <use xlink:href="#m05530eafc4" x="463.632612" y="538.990238" style="fill: #008000; stroke: #008000"/>
     <use xlink:href="#m05530eafc4" x="465.329807" y="539.704848" style="fill: #008000; stroke: #008000"/>
     <use xlink:href="#m05530eafc4" x="467.027002" y="538.905095" style="fill: #008000; stroke: #008000"/>
     <use xlink:href="#m05530eafc4" x="468.724197" y="535.397471" style="fill: #008000; stroke: #008000"/>
     <use xlink:href="#m05530eafc4" x="470.421392" y="540.622515" style="fill: #008000; stroke: #008000"/>
     <use xlink:href="#m05530eafc4" x="472.118587" y="538.132361" style="fill: #008000; stroke: #008000"/>
     <use xlink:href="#m05530eafc4" x="473.815782" y="537.199761" style="fill: #008000; stroke: #008000"/>
     <use xlink:href="#m05530eafc4" x="475.512977" y="537.530911" style="fill: #008000; stroke: #008000"/>
     <use xlink:href="#m05530eafc4" x="477.210172" y="540.874127" style="fill: #008000; stroke: #008000"/>
     <use xlink:href="#m05530eafc4" x="478.907367" y="537.744055" style="fill: #008000; stroke: #008000"/>
     <use xlink:href="#m05530eafc4" x="480.604562" y="533.697376" style="fill: #008000; stroke: #008000"/>
     <use xlink:href="#m05530eafc4" x="482.301757" y="536.506202" style="fill: #008000; stroke: #008000"/>
     <use xlink:href="#m05530eafc4" x="483.998952" y="537.445496" style="fill: #008000; stroke: #008000"/>
     <use xlink:href="#m05530eafc4" x="485.696147" y="538.18461" style="fill: #008000; stroke: #008000"/>
     <use xlink:href="#m05530eafc4" x="487.393342" y="540.090397" style="fill: #008000; stroke: #008000"/>
     <use xlink:href="#m05530eafc4" x="489.090537" y="539.98384" style="fill: #008000; stroke: #008000"/>
     <use xlink:href="#m05530eafc4" x="490.787732" y="536.470279" style="fill: #008000; stroke: #008000"/>
     <use xlink:href="#m05530eafc4" x="492.484927" y="537.99606" style="fill: #008000; stroke: #008000"/>
     <use xlink:href="#m05530eafc4" x="494.182122" y="538.274174" style="fill: #008000; stroke: #008000"/>
     <use xlink:href="#m05530eafc4" x="495.879317" y="539.864592" style="fill: #008000; stroke: #008000"/>
     <use xlink:href="#m05530eafc4" x="497.576512" y="538.971247" style="fill: #008000; stroke: #008000"/>
     <use xlink:href="#m05530eafc4" x="499.273707" y="538.7767" style="fill: #008000; stroke: #008000"/>
     <use xlink:href="#m05530eafc4" x="500.970902" y="540.303814" style="fill: #008000; stroke: #008000"/>
     <use xlink:href="#m05530eafc4" x="502.668097" y="540.081371" style="fill: #008000; stroke: #008000"/>
     <use xlink:href="#m05530eafc4" x="504.365292" y="534.599869" style="fill: #008000; stroke: #008000"/>
     <use xlink:href="#m05530eafc4" x="506.062487" y="539.469078" style="fill: #008000; stroke: #008000"/>
     <use xlink:href="#m05530eafc4" x="507.759682" y="540.293304" style="fill: #008000; stroke: #008000"/>
     <use xlink:href="#m05530eafc4" x="509.456877" y="538.878562" style="fill: #008000; stroke: #008000"/>
     <use xlink:href="#m05530eafc4" x="511.154072" y="537.768801" style="fill: #008000; stroke: #008000"/>
     <use xlink:href="#m05530eafc4" x="512.851267" y="538.36389" style="fill: #008000; stroke: #008000"/>
     <use xlink:href="#m05530eafc4" x="514.548462" y="536.776683" style="fill: #008000; stroke: #008000"/>
     <use xlink:href="#m05530eafc4" x="516.245657" y="537.843252" style="fill: #008000; stroke: #008000"/>
     <use xlink:href="#m05530eafc4" x="517.942852" y="544.748915" style="fill: #008000; stroke: #008000"/>
     <use xlink:href="#m05530eafc4" x="519.640047" y="540.994344" style="fill: #008000; stroke: #008000"/>
     <use xlink:href="#m05530eafc4" x="521.337242" y="541.292328" style="fill: #008000; stroke: #008000"/>
     <use xlink:href="#m05530eafc4" x="523.034437" y="544.761818" style="fill: #008000; stroke: #008000"/>
     <use xlink:href="#m05530eafc4" x="524.731632" y="539.463202" style="fill: #008000; stroke: #008000"/>
     <use xlink:href="#m05530eafc4" x="526.428827" y="538.168193" style="fill: #008000; stroke: #008000"/>
     <use xlink:href="#m05530eafc4" x="528.126022" y="540.365755" style="fill: #008000; stroke: #008000"/>
     <use xlink:href="#m05530eafc4" x="529.823217" y="537.731001" style="fill: #008000; stroke: #008000"/>
     <use xlink:href="#m05530eafc4" x="531.520412" y="537.513555" style="fill: #008000; stroke: #008000"/>
     <use xlink:href="#m05530eafc4" x="533.217607" y="535.600468" style="fill: #008000; stroke: #008000"/>
     <use xlink:href="#m05530eafc4" x="534.914802" y="539.452722" style="fill: #008000; stroke: #008000"/>
     <use xlink:href="#m05530eafc4" x="536.611997" y="538.175977" style="fill: #008000; stroke: #008000"/>
     <use xlink:href="#m05530eafc4" x="538.309192" y="541.545968" style="fill: #008000; stroke: #008000"/>
     <use xlink:href="#m05530eafc4" x="540.006387" y="537.516312" style="fill: #008000; stroke: #008000"/>
     <use xlink:href="#m05530eafc4" x="541.703582" y="538.623225" style="fill: #008000; stroke: #008000"/>
     <use xlink:href="#m05530eafc4" x="543.400777" y="537.614327" style="fill: #008000; stroke: #008000"/>
     <use xlink:href="#m05530eafc4" x="545.097972" y="539.031583" style="fill: #008000; stroke: #008000"/>
     <use xlink:href="#m05530eafc4" x="546.795167" y="539.269473" style="fill: #008000; stroke: #008000"/>
     <use xlink:href="#m05530eafc4" x="548.492362" y="540.513656" style="fill: #008000; stroke: #008000"/>
     <use xlink:href="#m05530eafc4" x="550.189557" y="539.799077" style="fill: #008000; stroke: #008000"/>
     <use xlink:href="#m05530eafc4" x="551.886752" y="540.059139" style="fill: #008000; stroke: #008000"/>
     <use xlink:href="#m05530eafc4" x="553.583947" y="538.741807" style="fill: #008000; stroke: #008000"/>
     <use xlink:href="#m05530eafc4" x="555.281142" y="538.179884" style="fill: #008000; stroke: #008000"/>
     <use xlink:href="#m05530eafc4" x="556.978337" y="537.693139" style="fill: #008000; stroke: #008000"/>
     <use xlink:href="#m05530eafc4" x="558.675532" y="540.653531" style="fill: #008000; stroke: #008000"/>
     <use xlink:href="#m05530eafc4" x="560.372727" y="536.854344" style="fill: #008000; stroke: #008000"/>
    </g>
   </g>
   <g id="patch_3">
    <path d="M 81 567 
L 81 77.76 
" style="fill: none"/>
   </g>
   <g id="patch_4">
    <path d="M 583.2 567 
L 583.2 77.76 
" style="fill: none"/>
   </g>
   <g id="patch_5">
    <path d="M 81 567 
L 583.2 567 
" style="fill: none"/>
   </g>
   <g id="patch_6">
    <path d="M 81 77.76 
L 583.2 77.76 
" style="fill: none"/>
   </g>
   <g id="text_16">
    <!-- Training Loss for Skip-gram -->
    <g style="fill: #262626" transform="translate(199.865813 71.76) scale(0.216 -0.216)">
     <defs>
      <path id="ArialMT-66" d="M 556 0 
L 556 2881 
L 59 2881 
L 59 3319 
L 556 3319 
L 556 3672 
Q 556 4006 616 4169 
Q 697 4388 901 4523 
Q 1106 4659 1475 4659 
Q 1713 4659 2000 4603 
L 1916 4113 
Q 1741 4144 1584 4144 
Q 1328 4144 1222 4034 
Q 1116 3925 1116 3625 
L 1116 3319 
L 1763 3319 
L 1763 2881 
L 1116 2881 
L 1116 0 
L 556 0 
z
" transform="scale(0.015625)"/>
      <path id="ArialMT-53" d="M 288 1472 
L 859 1522 
Q 900 1178 1048 958 
Q 1197 738 1509 602 
Q 1822 466 2213 466 
Q 2559 466 2825 569 
Q 3091 672 3220 851 
Q 3350 1031 3350 1244 
Q 3350 1459 3225 1620 
Q 3100 1781 2813 1891 
Q 2628 1963 1997 2114 
Q 1366 2266 1113 2400 
Q 784 2572 623 2826 
Q 463 3081 463 3397 
Q 463 3744 659 4045 
Q 856 4347 1234 4503 
Q 1613 4659 2075 4659 
Q 2584 4659 2973 4495 
Q 3363 4331 3572 4012 
Q 3781 3694 3797 3291 
L 3216 3247 
Q 3169 3681 2898 3903 
Q 2628 4125 2100 4125 
Q 1550 4125 1298 3923 
Q 1047 3722 1047 3438 
Q 1047 3191 1225 3031 
Q 1400 2872 2139 2705 
Q 2878 2538 3153 2413 
Q 3553 2228 3743 1945 
Q 3934 1663 3934 1294 
Q 3934 928 3725 604 
Q 3516 281 3123 101 
Q 2731 -78 2241 -78 
Q 1619 -78 1198 103 
Q 778 284 539 648 
Q 300 1013 288 1472 
z
" transform="scale(0.015625)"/>
      <path id="ArialMT-6b" d="M 425 0 
L 425 4581 
L 988 4581 
L 988 1969 
L 2319 3319 
L 3047 3319 
L 1778 2088 
L 3175 0 
L 2481 0 
L 1384 1697 
L 988 1316 
L 988 0 
L 425 0 
z
" transform="scale(0.015625)"/>
      <path id="ArialMT-70" d="M 422 -1272 
L 422 3319 
L 934 3319 
L 934 2888 
Q 1116 3141 1344 3267 
Q 1572 3394 1897 3394 
Q 2322 3394 2647 3175 
Q 2972 2956 3137 2557 
Q 3303 2159 3303 1684 
Q 3303 1175 3120 767 
Q 2938 359 2589 142 
Q 2241 -75 1856 -75 
Q 1575 -75 1351 44 
Q 1128 163 984 344 
L 984 -1272 
L 422 -1272 
z
M 931 1641 
Q 931 1000 1190 694 
Q 1450 388 1819 388 
Q 2194 388 2461 705 
Q 2728 1022 2728 1688 
Q 2728 2322 2467 2637 
Q 2206 2953 1844 2953 
Q 1484 2953 1207 2617 
Q 931 2281 931 1641 
z
" transform="scale(0.015625)"/>
      <path id="ArialMT-2d" d="M 203 1375 
L 203 1941 
L 1931 1941 
L 1931 1375 
L 203 1375 
z
" transform="scale(0.015625)"/>
      <path id="ArialMT-6d" d="M 422 0 
L 422 3319 
L 925 3319 
L 925 2853 
Q 1081 3097 1340 3245 
Q 1600 3394 1931 3394 
Q 2300 3394 2536 3241 
Q 2772 3088 2869 2813 
Q 3263 3394 3894 3394 
Q 4388 3394 4653 3120 
Q 4919 2847 4919 2278 
L 4919 0 
L 4359 0 
L 4359 2091 
Q 4359 2428 4304 2576 
Q 4250 2725 4106 2815 
Q 3963 2906 3769 2906 
Q 3419 2906 3187 2673 
Q 2956 2441 2956 1928 
L 2956 0 
L 2394 0 
L 2394 2156 
Q 2394 2531 2256 2718 
Q 2119 2906 1806 2906 
Q 1569 2906 1367 2781 
Q 1166 2656 1075 2415 
Q 984 2175 984 1722 
L 984 0 
L 422 0 
z
" transform="scale(0.015625)"/>
     </defs>
     <use xlink:href="#ArialMT-54"/>
     <use xlink:href="#ArialMT-72" x="57.333984"/>
     <use xlink:href="#ArialMT-61" x="90.634766"/>
     <use xlink:href="#ArialMT-69" x="146.25"/>
     <use xlink:href="#ArialMT-6e" x="168.466797"/>
     <use xlink:href="#ArialMT-69" x="224.082031"/>
     <use xlink:href="#ArialMT-6e" x="246.298828"/>
     <use xlink:href="#ArialMT-67" x="301.914062"/>
     <use xlink:href="#ArialMT-20" x="357.529297"/>
     <use xlink:href="#ArialMT-4c" x="385.3125"/>
     <use xlink:href="#ArialMT-6f" x="440.927734"/>
     <use xlink:href="#ArialMT-73" x="496.542969"/>
     <use xlink:href="#ArialMT-73" x="546.542969"/>
     <use xlink:href="#ArialMT-20" x="596.542969"/>
     <use xlink:href="#ArialMT-66" x="624.326172"/>
     <use xlink:href="#ArialMT-6f" x="652.109375"/>
     <use xlink:href="#ArialMT-72" x="707.724609"/>
     <use xlink:href="#ArialMT-20" x="741.025391"/>
     <use xlink:href="#ArialMT-53" x="768.808594"/>
     <use xlink:href="#ArialMT-6b" x="835.507812"/>
     <use xlink:href="#ArialMT-69" x="885.507812"/>
     <use xlink:href="#ArialMT-70" x="907.724609"/>
     <use xlink:href="#ArialMT-2d" x="963.339844"/>
     <use xlink:href="#ArialMT-67" x="996.640625"/>
     <use xlink:href="#ArialMT-72" x="1052.255859"/>
     <use xlink:href="#ArialMT-61" x="1085.556641"/>
     <use xlink:href="#ArialMT-6d" x="1141.171875"/>
    </g>
   </g>
   <g id="legend_1">
    <g id="patch_7">
     <path d="M 394.92 460.152 
L 535.87125 460.152 
Q 539.47125 460.152 539.47125 456.552 
L 539.47125 432.890437 
Q 539.47125 429.290437 535.87125 429.290437 
L 394.92 429.290437 
Q 391.32 429.290437 391.32 432.890437 
L 391.32 456.552 
Q 391.32 460.152 394.92 460.152 
z
" style="fill: #eaeaf2; opacity: 0.8; stroke: #000000; stroke-linejoin: miter"/>
    </g>
    <g id="line2d_28">
     <path d="M 398.52 443.0745 
L 416.52 443.0745 
L 434.52 443.0745 
" style="fill: none; stroke: #008000; stroke-width: 1.5; stroke-linecap: round"/>
     <g>
      <use xlink:href="#m05530eafc4" x="416.52" y="443.0745" style="fill: #008000; stroke: #008000"/>
     </g>
    </g>
    <g id="text_17">
     <!-- Train Loss -->
     <g style="fill: #262626" transform="translate(448.92 449.3745) scale(0.18 -0.18)">
      <use xlink:href="#ArialMT-54"/>
      <use xlink:href="#ArialMT-72" x="57.333984"/>
      <use xlink:href="#ArialMT-61" x="90.634766"/>
      <use xlink:href="#ArialMT-69" x="146.25"/>
      <use xlink:href="#ArialMT-6e" x="168.466797"/>
      <use xlink:href="#ArialMT-20" x="224.082031"/>
      <use xlink:href="#ArialMT-4c" x="251.865234"/>
      <use xlink:href="#ArialMT-6f" x="307.480469"/>
      <use xlink:href="#ArialMT-73" x="363.095703"/>
      <use xlink:href="#ArialMT-73" x="413.095703"/>
     </g>
    </g>
   </g>
  </g>
 </g>
 <defs>
  <clipPath id="p4d99a58e8e">
   <rect x="81" y="77.76" width="502.2" height="489.24"/>
  </clipPath>
 </defs>
</svg>
